<svg xmlns="http://www.w3.org/2000/svg" xmlns:xlink="http://www.w3.org/1999/xlink" width="34" zoomAndPan="magnify" viewBox="0 0 25.5 20.999999" height="28" preserveAspectRatio="xMidYMid meet" version="1.0"><defs><clipPath id="ce7ccb7b52"><path d="M 2.90625 0.207031 L 25.007812 0.207031 L 25.007812 20.519531 L 2.90625 20.519531 Z M 2.90625 0.207031 " clip-rule="nonzero"/></clipPath></defs><path fill="#0a5d7e" d="M 11.746094 15.078125 C 11.710938 15.078125 11.671875 15.074219 11.636719 15.070312 C 11.316406 15.019531 11.070312 14.75 11.027344 14.398438 L 10.105469 6.671875 L 8.855469 11.488281 C 8.777344 11.800781 8.511719 12.015625 8.210938 12.015625 L 0.378906 12.015625 C 0.167969 12.015625 0 11.847656 0 11.636719 L 0 11.632812 C 0 11.421875 0.167969 11.253906 0.378906 11.253906 L 8.128906 11.253906 L 9.429688 6.21875 C 9.523438 5.855469 9.820312 5.628906 10.167969 5.652344 C 10.515625 5.675781 10.789062 5.953125 10.835938 6.328125 L 11.769531 14.148438 L 13.050781 11.363281 C 13.164062 11.117188 13.394531 10.964844 13.652344 10.964844 L 18.894531 10.964844 C 19.101562 10.964844 19.273438 11.132812 19.273438 11.34375 L 19.273438 11.351562 C 19.273438 11.558594 19.101562 11.730469 18.894531 11.730469 L 13.726562 11.730469 L 12.382812 14.648438 C 12.257812 14.917969 12.015625 15.078125 11.746094 15.078125 " fill-opacity="1" fill-rule="nonzero"/><g clip-path="url(#ce7ccb7b52)"><path fill="#0a5d7e" d="M 25.003906 5.917969 C 25.015625 4.511719 24.246094 3.222656 24.179688 3.109375 C 23.671875 2.242188 22.949219 1.515625 22.085938 1.007812 C 21.195312 0.484375 20.171875 0.207031 19.132812 0.207031 C 16.988281 0.207031 15.050781 1.378906 14.03125 3.203125 C 14.007812 3.253906 13.9375 3.253906 13.910156 3.203125 C 12.894531 1.378906 10.953125 0.207031 8.8125 0.207031 C 7.769531 0.207031 6.75 0.484375 5.859375 1.007812 C 4.992188 1.515625 4.269531 2.242188 3.765625 3.109375 C 3.699219 3.21875 2.929688 4.519531 2.941406 5.917969 C 2.925781 6.15625 2.882812 7.234375 3.21875 8.371094 C 3.25 8.476562 3.328125 8.679688 3.390625 8.839844 C 3.445312 8.984375 3.585938 9.082031 3.742188 9.082031 L 3.75 9.082031 C 4.019531 9.082031 4.203125 8.804688 4.101562 8.554688 C 4.054688 8.449219 4.015625 8.351562 3.996094 8.292969 C 3.636719 7.191406 3.699219 6.066406 3.703125 5.960938 L 3.707031 5.945312 L 3.707031 5.917969 C 3.691406 4.722656 4.394531 3.546875 4.421875 3.503906 L 4.425781 3.496094 C 5.332031 1.941406 7.011719 0.972656 8.8125 0.972656 C 10.980469 0.972656 12.910156 2.351562 13.609375 4.402344 L 13.613281 4.414062 C 13.730469 4.757812 14.214844 4.757812 14.332031 4.414062 L 14.335938 4.402344 C 15.035156 2.351562 16.964844 0.972656 19.132812 0.972656 C 20.933594 0.972656 22.613281 1.941406 23.519531 3.496094 L 23.523438 3.503906 C 23.554688 3.554688 24.25 4.726562 24.238281 5.917969 L 24.238281 5.960938 C 24.246094 6.085938 24.328125 7.585938 23.734375 8.832031 L 23.722656 8.859375 C 23.40625 9.679688 22.949219 10.5 22.363281 11.289062 L 22.070312 11.683594 L 22.09375 11.695312 C 19.78125 15.054688 15.402344 18.664062 14.074219 19.71875 C 14.039062 19.746094 14 19.753906 13.972656 19.753906 C 13.945312 19.753906 13.90625 19.746094 13.871094 19.71875 C 13.203125 19.1875 11.757812 18.007812 10.195312 16.535156 C 10.125 16.472656 10.03125 16.433594 9.9375 16.433594 L 9.925781 16.433594 C 9.582031 16.433594 9.417969 16.851562 9.664062 17.089844 C 11.257812 18.585938 12.71875 19.78125 13.398438 20.320312 C 13.558594 20.449219 13.761719 20.519531 13.96875 20.519531 L 13.972656 20.519531 C 14.179688 20.519531 14.386719 20.449219 14.550781 20.316406 C 15.949219 19.203125 20.695312 15.292969 22.988281 11.730469 C 23.605469 10.894531 24.089844 10.023438 24.429688 9.148438 C 25.078125 7.785156 25.019531 6.207031 25.003906 5.917969 " fill-opacity="1" fill-rule="nonzero"/></g></svg>