<svg xmlns="http://www.w3.org/2000/svg" xmlns:xlink="http://www.w3.org/1999/xlink" width="179" zoomAndPan="magnify" viewBox="0 0 134.25 51.749998" height="69" preserveAspectRatio="xMidYMid meet" version="1.0"><defs><g/><clipPath id="23fa9d9abb"><path d="M 8 6 L 133.503906 6 L 133.503906 45 L 8 45 Z M 8 6 " clip-rule="nonzero"/></clipPath><clipPath id="5d83155230"><path d="M 94.871094 15 L 119 15 L 119 27 L 94.871094 27 Z M 94.871094 15 " clip-rule="nonzero"/></clipPath><clipPath id="10e9307870"><path d="M 98.390625 8.917969 L 125.164062 8.917969 L 125.164062 33.519531 L 98.390625 33.519531 Z M 98.390625 8.917969 " clip-rule="nonzero"/></clipPath><clipPath id="4d77026d94"><rect x="0" width="126" y="0" height="39"/></clipPath></defs><g clip-path="url(#23fa9d9abb)"><g transform="matrix(1, 0, 0, 1, 8, 6)"><g clip-path="url(#4d77026d94)"><g clip-path="url(#5d83155230)"><path fill="#0a5d7e" d="M 109.097656 26.929688 C 109.054688 26.929688 109.011719 26.925781 108.964844 26.917969 C 108.574219 26.855469 108.277344 26.527344 108.226562 26.105469 L 107.109375 16.746094 L 105.597656 22.582031 C 105.5 22.957031 105.179688 23.222656 104.816406 23.222656 L 95.328125 23.222656 C 95.074219 23.222656 94.871094 23.015625 94.871094 22.761719 L 94.871094 22.753906 C 94.871094 22.5 95.074219 22.292969 95.328125 22.292969 L 104.714844 22.292969 L 106.292969 16.195312 C 106.40625 15.757812 106.765625 15.480469 107.183594 15.507812 C 107.605469 15.539062 107.9375 15.875 107.992188 16.332031 L 109.125 25.800781 L 110.679688 22.429688 C 110.816406 22.132812 111.09375 21.945312 111.40625 21.945312 L 117.753906 21.945312 C 118.007812 21.945312 118.214844 22.152344 118.214844 22.40625 L 118.214844 22.414062 C 118.214844 22.667969 118.007812 22.871094 117.753906 22.871094 L 111.496094 22.871094 L 109.867188 26.40625 C 109.71875 26.734375 109.421875 26.929688 109.097656 26.929688 " fill-opacity="1" fill-rule="nonzero"/></g><g clip-path="url(#10e9307870)"><path fill="#0a5d7e" d="M 125.15625 15.832031 C 125.171875 14.128906 124.238281 12.566406 124.15625 12.429688 C 123.542969 11.382812 122.667969 10.503906 121.621094 9.886719 C 120.542969 9.253906 119.304688 8.917969 118.046875 8.917969 C 115.449219 8.917969 113.097656 10.335938 111.867188 12.546875 C 111.835938 12.605469 111.75 12.605469 111.71875 12.546875 C 110.488281 10.335938 108.140625 8.917969 105.542969 8.917969 C 104.28125 8.917969 103.046875 9.253906 101.964844 9.886719 C 100.917969 10.503906 100.042969 11.382812 99.429688 12.429688 C 99.351562 12.566406 98.417969 14.140625 98.433594 15.832031 C 98.414062 16.121094 98.359375 17.425781 98.769531 18.800781 C 98.808594 18.929688 98.898438 19.175781 98.976562 19.371094 C 99.046875 19.546875 99.214844 19.664062 99.402344 19.664062 L 99.414062 19.664062 C 99.742188 19.664062 99.960938 19.328125 99.835938 19.027344 C 99.78125 18.898438 99.734375 18.78125 99.710938 18.710938 C 99.273438 17.375 99.347656 16.011719 99.359375 15.882812 L 99.359375 15.832031 C 99.34375 14.386719 100.195312 12.960938 100.222656 12.910156 L 100.230469 12.902344 C 101.328125 11.015625 103.363281 9.84375 105.542969 9.84375 C 108.171875 9.84375 110.507812 11.511719 111.355469 14 L 111.359375 14.011719 C 111.5 14.425781 112.085938 14.425781 112.226562 14.011719 L 112.230469 14 C 113.082031 11.511719 115.417969 9.84375 118.046875 9.84375 C 120.222656 9.84375 122.257812 11.015625 123.355469 12.898438 L 123.363281 12.910156 C 123.398438 12.96875 124.242188 14.390625 124.226562 15.832031 L 124.226562 15.863281 L 124.230469 15.882812 C 124.238281 16.035156 124.339844 17.855469 123.617188 19.363281 L 123.601562 19.394531 C 123.21875 20.390625 122.664062 21.382812 121.957031 22.335938 L 121.601562 22.816406 L 121.628906 22.828125 C 118.828125 26.902344 113.523438 31.269531 111.917969 32.546875 C 111.871094 32.585938 111.824219 32.589844 111.792969 32.589844 C 111.761719 32.589844 111.714844 32.585938 111.671875 32.546875 C 110.859375 31.902344 109.113281 30.472656 107.21875 28.695312 C 107.132812 28.613281 107.023438 28.570312 106.90625 28.570312 L 106.890625 28.570312 C 106.476562 28.570312 106.277344 29.078125 106.578125 29.363281 C 108.503906 31.175781 110.277344 32.625 111.097656 33.277344 C 111.292969 33.433594 111.539062 33.519531 111.789062 33.519531 L 111.792969 33.519531 C 112.046875 33.519531 112.296875 33.429688 112.496094 33.273438 C 114.191406 31.925781 119.933594 27.1875 122.714844 22.871094 C 123.464844 21.859375 124.050781 20.808594 124.460938 19.746094 C 125.246094 18.097656 125.175781 16.183594 125.15625 15.832031 " fill-opacity="1" fill-rule="nonzero"/></g><g fill="#0a5d7e" fill-opacity="1"><g transform="translate(0.630347, 30.103236)"><g><path d="M 10.765625 0 L 10.765625 -0.03125 L 0.859375 -18.453125 L 5.96875 -18.453125 L 10.78125 -9.25 L 15.59375 -18.453125 L 20.703125 -18.453125 L 10.78125 -0.03125 Z M 10.765625 0 "/></g></g></g><g fill="#0a5d7e" fill-opacity="1"><g transform="translate(22.174721, 30.103236)"><g><path d="M 4.796875 -19.78125 L 4.796875 -16.4375 L 0.859375 -16.4375 L 0.859375 -19.78125 Z M 4.828125 -14.59375 L 4.828125 0 L 0.859375 0 L 0.859375 -14.59375 Z M 4.828125 -14.59375 "/></g></g></g><g fill="#0a5d7e" fill-opacity="1"><g transform="translate(27.851768, 30.103236)"><g><path d="M 11.390625 -14.625 L 11.390625 -10.640625 L 8.125 -10.640625 L 8.125 0 L 4.140625 0 L 4.140625 -10.640625 L 0.859375 -10.640625 L 0.859375 -14.625 L 4.140625 -14.625 L 4.140625 -19.734375 L 8.125 -19.734375 L 8.125 -14.625 Z M 11.390625 -14.625 "/></g></g></g><g fill="#0a5d7e" fill-opacity="1"><g transform="translate(39.262607, 30.103236)"><g><path d="M 11.359375 -14.671875 L 15.328125 -14.671875 L 15.328125 0 L 11.359375 0 L 11.359375 -1.640625 C 10.546875 -0.585938 9.316406 -0.0625 7.671875 -0.0625 C 5.660156 -0.0390625 3.9375 -0.738281 2.5 -2.15625 C 1.0625 -3.570312 0.332031 -5.296875 0.3125 -7.328125 C 0.289062 -9.328125 0.988281 -11.046875 2.40625 -12.484375 C 3.832031 -13.929688 5.554688 -14.660156 7.578125 -14.671875 C 9.242188 -14.671875 10.503906 -14.132812 11.359375 -13.0625 Z M 10.15625 -4.828125 C 10.863281 -5.523438 11.21875 -6.375 11.21875 -7.375 C 11.21875 -8.40625 10.859375 -9.257812 10.140625 -9.9375 C 9.421875 -10.65625 8.578125 -10.992188 7.609375 -10.953125 C 6.609375 -10.953125 5.753906 -10.601562 5.046875 -9.90625 C 4.347656 -9.207031 4 -8.359375 4 -7.359375 C 4 -6.367188 4.359375 -5.515625 5.078125 -4.796875 C 5.773438 -4.097656 6.628906 -3.75 7.640625 -3.75 C 8.660156 -3.78125 9.5 -4.140625 10.15625 -4.828125 Z M 10.15625 -4.828125 "/></g></g></g><g fill="#0a5d7e" fill-opacity="1"><g transform="translate(55.442166, 30.103236)"><g><path d="M 4.828125 -19.734375 L 4.828125 0 L 0.859375 0 L 0.859375 -19.734375 Z M 4.828125 -19.734375 "/></g></g></g><g fill="#0a5d7e" fill-opacity="1"><g transform="translate(61.119213, 30.103236)"><g><path d="M 7.578125 -14.625 C 9.609375 -14.644531 11.332031 -13.941406 12.75 -12.515625 C 14.1875 -11.078125 14.90625 -9.359375 14.90625 -7.359375 C 14.925781 -5.328125 14.222656 -3.601562 12.796875 -2.1875 C 11.378906 -0.75 9.671875 -0.0195312 7.671875 0 C 5.640625 0.0195312 3.90625 -0.675781 2.46875 -2.09375 C 1.03125 -3.519531 0.3125 -5.242188 0.3125 -7.265625 C 0.289062 -9.296875 0.988281 -11.019531 2.40625 -12.4375 C 3.832031 -13.875 5.554688 -14.601562 7.578125 -14.625 Z M 10.15625 -4.765625 C 10.863281 -5.460938 11.21875 -6.316406 11.21875 -7.328125 C 11.21875 -8.304688 10.859375 -9.15625 10.140625 -9.875 C 9.421875 -10.5625 8.566406 -10.90625 7.578125 -10.90625 C 6.597656 -10.90625 5.753906 -10.550781 5.046875 -9.84375 C 4.347656 -9.113281 4 -8.265625 4 -7.296875 C 4 -6.304688 4.359375 -5.453125 5.078125 -4.734375 C 5.773438 -4.035156 6.628906 -3.6875 7.640625 -3.6875 C 8.660156 -3.726562 9.5 -4.085938 10.15625 -4.765625 Z M 10.15625 -4.765625 "/></g></g></g><g fill="#0a5d7e" fill-opacity="1"><g transform="translate(76.333687, 30.103236)"><g><path d="M 11.75 -14.65625 L 15.46875 -14.65625 L 15.46875 -0.03125 C 15.46875 1.976562 14.757812 3.691406 13.34375 5.109375 C 11.945312 6.523438 10.242188 7.242188 8.234375 7.265625 C 6.359375 7.285156 4.722656 6.671875 3.328125 5.421875 C 1.941406 4.210938 1.144531 2.691406 0.9375 0.859375 L 4.6875 0.859375 C 4.820312 1.460938 5.144531 2.019531 5.65625 2.53125 C 6.351562 3.226562 7.203125 3.578125 8.203125 3.578125 C 9.203125 3.578125 10.046875 3.21875 10.734375 2.5 C 11.429688 1.800781 11.78125 0.957031 11.78125 -0.03125 L 11.75 -1.46875 C 10.789062 -0.507812 9.617188 -0.03125 8.234375 -0.03125 C 6.210938 -0.0078125 4.476562 -0.707031 3.03125 -2.125 C 1.59375 -3.550781 0.875 -5.273438 0.875 -7.296875 C 0.863281 -9.316406 1.566406 -11.039062 2.984375 -12.46875 C 4.398438 -13.90625 6.117188 -14.632812 8.140625 -14.65625 C 9.753906 -14.65625 10.957031 -14.148438 11.75 -13.140625 Z M 11.75 -7.75 C 11.675781 -8.582031 11.328125 -9.300781 10.703125 -9.90625 C 9.984375 -10.59375 9.128906 -10.9375 8.140625 -10.9375 C 7.160156 -10.9375 6.320312 -10.582031 5.625 -9.875 C 4.925781 -9.132812 4.578125 -8.285156 4.578125 -7.328125 C 4.578125 -6.335938 4.9375 -5.484375 5.65625 -4.765625 C 6.351562 -4.066406 7.203125 -3.71875 8.203125 -3.71875 C 9.222656 -3.757812 10.066406 -4.117188 10.734375 -4.796875 C 11.316406 -5.378906 11.65625 -6.082031 11.75 -6.90625 Z M 11.75 -7.75 "/></g></g></g></g></g></g></svg>