<svg xmlns="http://www.w3.org/2000/svg" xmlns:xlink="http://www.w3.org/1999/xlink" width="123" zoomAndPan="magnify" viewBox="0 0 92.25 43.499998" height="58" preserveAspectRatio="xMidYMid meet" version="1.0"><defs><g/></defs><g fill="#0a5d7e" fill-opacity="1"><g transform="translate(7.335846, 30.030017)"><g><path d="M 8.953125 0 L 8.953125 -0.03125 L 0.703125 -15.359375 L 4.96875 -15.359375 L 8.984375 -7.703125 L 12.96875 -15.359375 L 17.21875 -15.359375 L 8.984375 -0.03125 Z M 8.953125 0 "/></g></g></g><g fill="#0a5d7e" fill-opacity="1"><g transform="translate(25.265721, 30.030017)"><g><path d="M 4 -16.46875 L 4 -13.671875 L 0.703125 -13.671875 L 0.703125 -16.46875 Z M 4.015625 -12.140625 L 4.015625 0 L 0.703125 0 L 0.703125 -12.140625 Z M 4.015625 -12.140625 "/></g></g></g><g fill="#0a5d7e" fill-opacity="1"><g transform="translate(29.99033, 30.030017)"><g><path d="M 9.46875 -12.171875 L 9.46875 -8.859375 L 6.75 -8.859375 L 6.75 0 L 3.453125 0 L 3.453125 -8.859375 L 0.703125 -8.859375 L 0.703125 -12.171875 L 3.453125 -12.171875 L 3.453125 -16.421875 L 6.75 -16.421875 L 6.75 -12.171875 Z M 9.46875 -12.171875 "/></g></g></g><g fill="#0a5d7e" fill-opacity="1"><g transform="translate(39.486773, 30.030017)"><g><path d="M 9.453125 -12.21875 L 12.75 -12.21875 L 12.75 0 L 9.453125 0 L 9.453125 -1.375 C 8.773438 -0.488281 7.75 -0.046875 6.375 -0.046875 C 4.707031 -0.0351562 3.273438 -0.617188 2.078125 -1.796875 C 0.878906 -2.972656 0.273438 -4.40625 0.265625 -6.09375 C 0.242188 -7.757812 0.828125 -9.191406 2.015625 -10.390625 C 3.191406 -11.585938 4.625 -12.195312 6.3125 -12.21875 C 7.695312 -12.21875 8.742188 -11.769531 9.453125 -10.875 Z M 8.453125 -4.015625 C 9.035156 -4.597656 9.328125 -5.304688 9.328125 -6.140625 C 9.328125 -6.992188 9.03125 -7.703125 8.4375 -8.265625 C 7.832031 -8.867188 7.128906 -9.15625 6.328125 -9.125 C 5.492188 -9.125 4.785156 -8.832031 4.203125 -8.25 C 3.617188 -7.664062 3.328125 -6.957031 3.328125 -6.125 C 3.328125 -5.300781 3.628906 -4.59375 4.234375 -4 C 4.816406 -3.414062 5.523438 -3.125 6.359375 -3.125 C 7.203125 -3.15625 7.898438 -3.453125 8.453125 -4.015625 Z M 8.453125 -4.015625 "/></g></g></g><g fill="#0a5d7e" fill-opacity="1"><g transform="translate(52.951889, 30.030017)"><g><path d="M 4.015625 -16.421875 L 4.015625 0 L 0.703125 0 L 0.703125 -16.421875 Z M 4.015625 -16.421875 "/></g></g></g><g fill="#0a5d7e" fill-opacity="1"><g transform="translate(57.676498, 30.030017)"><g><path d="M 6.3125 -12.171875 C 7.988281 -12.179688 9.421875 -11.597656 10.609375 -10.421875 C 11.804688 -9.222656 12.40625 -7.789062 12.40625 -6.125 C 12.414062 -4.4375 11.832031 -3 10.65625 -1.8125 C 9.476562 -0.625 8.050781 -0.0195312 6.375 0 C 4.6875 0.0195312 3.25 -0.5625 2.0625 -1.75 C 0.863281 -2.925781 0.265625 -4.359375 0.265625 -6.046875 C 0.242188 -7.734375 0.828125 -9.164062 2.015625 -10.34375 C 3.191406 -11.539062 4.625 -12.148438 6.3125 -12.171875 Z M 8.453125 -3.96875 C 9.035156 -4.550781 9.328125 -5.257812 9.328125 -6.09375 C 9.328125 -6.914062 9.03125 -7.625 8.4375 -8.21875 C 7.832031 -8.789062 7.125 -9.078125 6.3125 -9.078125 C 5.488281 -9.078125 4.785156 -8.785156 4.203125 -8.203125 C 3.617188 -7.585938 3.328125 -6.878906 3.328125 -6.078125 C 3.328125 -5.253906 3.628906 -4.546875 4.234375 -3.953125 C 4.816406 -3.367188 5.523438 -3.078125 6.359375 -3.078125 C 7.203125 -3.109375 7.898438 -3.40625 8.453125 -3.96875 Z M 8.453125 -3.96875 "/></g></g></g><g fill="#0a5d7e" fill-opacity="1"><g transform="translate(70.338441, 30.030017)"><g><path d="M 9.78125 -12.1875 L 12.875 -12.1875 L 12.875 -0.03125 C 12.875 1.644531 12.285156 3.070312 11.109375 4.25 C 9.941406 5.4375 8.519531 6.035156 6.84375 6.046875 C 5.289062 6.066406 3.929688 5.554688 2.765625 4.515625 C 1.617188 3.503906 0.957031 2.234375 0.78125 0.703125 L 3.890625 0.703125 C 4.003906 1.210938 4.273438 1.679688 4.703125 2.109375 C 5.285156 2.691406 5.992188 2.984375 6.828125 2.984375 C 7.660156 2.984375 8.363281 2.679688 8.9375 2.078125 C 9.507812 1.492188 9.796875 0.789062 9.796875 -0.03125 L 9.78125 -1.234375 C 8.976562 -0.429688 8 -0.03125 6.84375 -0.03125 C 5.164062 -0.0078125 3.726562 -0.585938 2.53125 -1.765625 C 1.332031 -2.953125 0.734375 -4.390625 0.734375 -6.078125 C 0.710938 -7.753906 1.296875 -9.1875 2.484375 -10.375 C 3.660156 -11.570312 5.09375 -12.175781 6.78125 -12.1875 C 8.113281 -12.1875 9.113281 -11.769531 9.78125 -10.9375 Z M 9.78125 -6.453125 C 9.71875 -7.140625 9.425781 -7.738281 8.90625 -8.25 C 8.3125 -8.8125 7.601562 -9.09375 6.78125 -9.09375 C 5.957031 -9.09375 5.253906 -8.800781 4.671875 -8.21875 C 4.085938 -7.601562 3.796875 -6.894531 3.796875 -6.09375 C 3.796875 -5.269531 4.097656 -4.5625 4.703125 -3.96875 C 5.285156 -3.382812 5.992188 -3.09375 6.828125 -3.09375 C 7.679688 -3.125 8.382812 -3.425781 8.9375 -4 C 9.414062 -4.476562 9.695312 -5.054688 9.78125 -5.734375 Z M 9.78125 -6.453125 "/></g></g></g></svg>