<svg xmlns="http://www.w3.org/2000/svg" xmlns:xlink="http://www.w3.org/1999/xlink" width="512" zoomAndPan="magnify" viewBox="0 0 384 383.999986" height="512" preserveAspectRatio="xMidYMid meet" version="1.0"><defs><clipPath id="cd089cd007"><path d="M 192 0 C 85.960938 0 0 85.960938 0 192 C 0 298.039062 85.960938 384 192 384 C 298.039062 384 384 298.039062 384 192 C 384 85.960938 298.039062 0 192 0 Z M 192 0 " clip-rule="nonzero"/></clipPath><clipPath id="4d3b3d7cb4"><path d="M 0 0 L 384 0 L 384 384 L 0 384 Z M 0 0 " clip-rule="nonzero"/></clipPath><clipPath id="2d21a5752b"><path d="M 192 0 C 85.960938 0 0 85.960938 0 192 C 0 298.039062 85.960938 384 192 384 C 298.039062 384 384 298.039062 384 192 C 384 85.960938 298.039062 0 192 0 Z M 192 0 " clip-rule="nonzero"/></clipPath><clipPath id="c168e89f3f"><rect x="0" width="384" y="0" height="384"/></clipPath><clipPath id="4a0a3decbf"><path d="M 76 60.75 L 162 60.75 L 162 77 L 76 77 Z M 76 60.75 " clip-rule="nonzero"/></clipPath></defs><g clip-path="url(#cd089cd007)"><g><g clip-path="url(#c168e89f3f)"><g clip-path="url(#4d3b3d7cb4)"><g clip-path="url(#2d21a5752b)"><rect x="-84.48" width="552.96" fill="#14967f" height="552.959979" y="-84.479997" fill-opacity="1"/></g></g></g></g></g><g clip-path="url(#4a0a3decbf)"><path fill="#100f0d" d="M 76.148438 76.921875 C 76.148438 76.921875 75.714844 60.847656 90.476562 60.847656 C 105.238281 60.847656 149.234375 60.847656 149.234375 60.847656 C 149.234375 60.847656 160.917969 65.960938 161.152344 76.921875 L 76.148438 76.921875 " fill-opacity="1" fill-rule="nonzero"/></g><path fill="#100f0d" d="M 104.054688 211.363281 C 104.054688 211.363281 102.363281 230.609375 114.007812 235.019531 C 125.652344 239.425781 151.632812 244.089844 149.394531 259.511719 C 147.152344 274.933594 150.398438 280.433594 145.828125 310.917969 C 145.828125 310.917969 214.792969 323.125 239.875 310.347656 L 242.863281 253.125 C 242.863281 253.125 218.0625 257.277344 186.863281 244.207031 C 186.863281 244.207031 172.808594 231.421875 170.726562 221.289062 C 168.652344 211.152344 136.382812 211.363281 130.132812 211.363281 L 104.054688 211.363281 " fill-opacity="1" fill-rule="nonzero"/><path fill="#100f0d" d="M 104.515625 189.859375 C 104.515625 189.859375 103.210938 206.976562 106.105469 206.976562 L 126.65625 206.976562 C 126.65625 206.976562 167.355469 202.292969 177.542969 223.359375 C 187.734375 244.429688 233.175781 251.050781 249.675781 247.066406 C 266.175781 243.082031 303.625 223.96875 298.992188 190.945312 L 104.515625 189.859375 " fill-opacity="1" fill-rule="nonzero"/><path fill="#100f0d" d="M 157.679688 183.59375 C 157.679688 183.59375 158.117188 174.722656 163.0625 172.953125 C 165.347656 172.136719 194.5625 165.679688 225.363281 165.851562 C 261.292969 166.046875 299.386719 172.953125 299.386719 172.953125 C 299.386719 172.953125 308.246094 176.976562 306.449219 183.804688 L 157.679688 183.59375 " fill-opacity="1" fill-rule="nonzero"/><path fill="#100f0d" d="M 114.253906 113.464844 C 111.261719 113.464844 108.84375 111.078125 108.84375 108.140625 C 108.84375 105.199219 111.261719 102.8125 114.253906 102.8125 C 117.242188 102.8125 119.667969 105.199219 119.667969 108.140625 C 119.667969 111.078125 117.242188 113.464844 114.253906 113.464844 Z M 161.152344 81.304688 L 76.292969 81.304688 C 76.292969 81.304688 80.375 177.574219 89.203125 188.140625 C 88.832031 188.09375 147.769531 190.871094 152.128906 188.878906 C 152.128906 188.878906 167.875 97.378906 161.152344 81.304688 " fill-opacity="1" fill-rule="nonzero"/></svg>