<svg xmlns="http://www.w3.org/2000/svg" xmlns:xlink="http://www.w3.org/1999/xlink" width="512" zoomAndPan="magnify" viewBox="0 0 384 383.999986" height="512" preserveAspectRatio="xMidYMid meet" version="1.0"><defs><clipPath id="e8dc85a5cd"><path d="M 1 34 L 351 34 L 351 383.25 L 1 383.25 Z M 1 34 " clip-rule="nonzero"/></clipPath></defs><g clip-path="url(#e8dc85a5cd)"><path fill="#000000" d="M 82.074219 34.5 C 37.742188 34.5 1.644531 70.667969 1.644531 114.933594 L 1.644531 302.609375 C 1.644531 346.945312 37.742188 383.039062 82.074219 383.039062 L 269.75 383.039062 C 314.085938 383.039062 350.183594 346.945312 350.183594 302.609375 L 350.183594 222.175781 C 350.183594 214.773438 344.179688 208.769531 336.777344 208.769531 C 329.378906 208.769531 323.371094 214.773438 323.371094 222.175781 L 323.371094 302.609375 C 323.371094 332.5625 299.703125 356.230469 269.75 356.230469 L 82.074219 356.230469 C 52.191406 356.230469 28.453125 332.5625 28.453125 302.609375 L 28.453125 114.933594 C 28.453125 85.050781 52.191406 61.3125 82.074219 61.3125 L 162.507812 61.3125 C 169.910156 61.3125 175.914062 55.308594 175.914062 47.90625 C 175.914062 40.503906 169.910156 34.5 162.507812 34.5 Z M 82.074219 34.5 " fill-opacity="1" fill-rule="nonzero"/></g><path fill="#000000" d="M 274.078125 25.285156 L 118.523438 180.84375 C 116.425781 182.9375 115.101562 185.660156 114.75 188.523438 L 104.558594 263.371094 C 103.371094 272.027344 110.632812 279.429688 119.359375 278.519531 L 195.8125 270.003906 C 198.882812 269.652344 201.675781 268.328125 203.839844 266.164062 L 359.398438 110.675781 C 382.859375 87.144531 382.859375 48.8125 359.398438 25.285156 C 336.359375 1.265625 296.632812 3.429688 274.078125 25.285156 Z M 340.410156 44.277344 C 353.675781 57.542969 353.675781 78.347656 340.410156 91.683594 L 326.164062 105.925781 L 278.828125 58.519531 L 293 44.277344 C 308.570312 28.707031 327.769531 31.636719 340.410156 44.277344 Z M 259.835938 77.441406 L 307.246094 124.847656 L 188.203125 243.890625 L 133.464844 249.964844 L 140.65625 196.621094 Z M 259.835938 77.441406 " fill-opacity="1" fill-rule="nonzero"/></svg>