<svg xmlns="http://www.w3.org/2000/svg" xmlns:xlink="http://www.w3.org/1999/xlink" width="512" zoomAndPan="magnify" viewBox="0 0 384 383.999986" height="512" preserveAspectRatio="xMidYMid meet" version="1.0"><defs><clipPath id="94f29cb869"><path d="M 0.75 39 L 383.25 39 L 383.25 141 L 0.75 141 Z M 0.75 39 " clip-rule="nonzero"/></clipPath><clipPath id="b0b4428513"><path d="M 0.75 243 L 383.25 243 L 383.25 345 L 0.75 345 Z M 0.75 243 " clip-rule="nonzero"/></clipPath><clipPath id="b47e8ce940"><path d="M 0.75 141 L 383.25 141 L 383.25 243 L 0.75 243 Z M 0.75 141 " clip-rule="nonzero"/></clipPath></defs><g clip-path="url(#94f29cb869)"><path fill="#000000" d="M 370.5 77.25 L 139.191406 77.25 C 138.84375 75.894531 138.445312 74.554688 137.988281 73.234375 C 137.535156 71.914062 137.023438 70.613281 136.460938 69.332031 C 135.898438 68.050781 135.28125 66.796875 134.617188 65.566406 C 133.949219 64.339844 133.234375 63.140625 132.46875 61.96875 C 131.703125 60.800781 130.890625 59.664062 130.027344 58.558594 C 129.167969 57.457031 128.265625 56.390625 127.316406 55.363281 C 126.371094 54.335938 125.382812 53.347656 124.351562 52.402344 C 123.324219 51.457031 122.253906 50.554688 121.152344 49.695312 C 120.046875 48.835938 118.910156 48.027344 117.738281 47.261719 C 116.570312 46.5 115.367188 45.785156 114.136719 45.117188 C 112.90625 44.453125 111.652344 43.839844 110.371094 43.28125 C 109.089844 42.71875 107.789062 42.210938 106.464844 41.757812 C 105.144531 41.304688 103.804688 40.90625 102.449219 40.5625 C 101.09375 40.21875 99.726562 39.933594 98.347656 39.703125 C 96.96875 39.472656 95.582031 39.300781 94.1875 39.183594 C 92.792969 39.070312 91.398438 39.011719 90 39.011719 C 88.601562 39.011719 87.207031 39.070312 85.8125 39.183594 C 84.417969 39.300781 83.03125 39.472656 81.652344 39.703125 C 80.273438 39.933594 78.90625 40.21875 77.550781 40.5625 C 76.195312 40.90625 74.855469 41.304688 73.535156 41.757812 C 72.210938 42.210938 70.910156 42.71875 69.628906 43.28125 C 68.347656 43.839844 67.09375 44.453125 65.863281 45.117188 C 64.632812 45.785156 63.429688 46.5 62.261719 47.261719 C 61.089844 48.027344 59.953125 48.835938 58.847656 49.695312 C 57.746094 50.554688 56.675781 51.457031 55.648438 52.402344 C 54.617188 53.347656 53.628906 54.335938 52.683594 55.363281 C 51.734375 56.390625 50.832031 57.457031 49.972656 58.558594 C 49.109375 59.664062 48.296875 60.800781 47.53125 61.96875 C 46.765625 63.140625 46.050781 64.339844 45.382812 65.566406 C 44.71875 66.796875 44.101562 68.050781 43.539062 69.332031 C 42.976562 70.613281 42.464844 71.914062 42.011719 73.234375 C 41.554688 74.554688 41.15625 75.894531 40.808594 77.25 L 13.5 77.25 C 12.664062 77.25 11.832031 77.332031 11.011719 77.496094 C 10.191406 77.660156 9.394531 77.898438 8.621094 78.21875 C 7.847656 78.539062 7.113281 78.933594 6.417969 79.398438 C 5.71875 79.863281 5.078125 80.390625 4.484375 80.984375 C 3.890625 81.578125 3.363281 82.21875 2.898438 82.917969 C 2.433594 83.613281 2.039062 84.347656 1.71875 85.121094 C 1.398438 85.894531 1.160156 86.691406 0.996094 87.511719 C 0.832031 88.332031 0.75 89.164062 0.75 90 C 0.75 90.835938 0.832031 91.667969 0.996094 92.488281 C 1.160156 93.308594 1.398438 94.105469 1.71875 94.878906 C 2.039062 95.652344 2.433594 96.386719 2.898438 97.082031 C 3.363281 97.78125 3.890625 98.421875 4.484375 99.015625 C 5.078125 99.609375 5.71875 100.136719 6.417969 100.601562 C 7.113281 101.066406 7.847656 101.460938 8.621094 101.78125 C 9.394531 102.101562 10.191406 102.339844 11.011719 102.503906 C 11.832031 102.667969 12.664062 102.75 13.5 102.75 L 40.808594 102.75 C 41.15625 104.105469 41.554688 105.445312 42.011719 106.765625 C 42.464844 108.085938 42.976562 109.386719 43.539062 110.667969 C 44.101562 111.949219 44.71875 113.203125 45.382812 114.433594 C 46.050781 115.660156 46.765625 116.859375 47.53125 118.03125 C 48.296875 119.199219 49.109375 120.335938 49.972656 121.441406 C 50.832031 122.542969 51.734375 123.609375 52.683594 124.636719 C 53.628906 125.664062 54.617188 126.652344 55.648438 127.597656 C 56.675781 128.542969 57.746094 129.445312 58.847656 130.304688 C 59.953125 131.164062 61.089844 131.972656 62.261719 132.738281 C 63.429688 133.5 64.632812 134.214844 65.863281 134.882812 C 67.09375 135.546875 68.347656 136.160156 69.628906 136.71875 C 70.910156 137.28125 72.210938 137.789062 73.535156 138.242188 C 74.855469 138.695312 76.195312 139.09375 77.550781 139.4375 C 78.90625 139.78125 80.273438 140.066406 81.652344 140.296875 C 83.03125 140.527344 84.417969 140.699219 85.8125 140.816406 C 87.207031 140.929688 88.601562 140.988281 90 140.988281 C 91.398438 140.988281 92.792969 140.929688 94.1875 140.816406 C 95.582031 140.699219 96.96875 140.527344 98.347656 140.296875 C 99.726562 140.066406 101.09375 139.78125 102.449219 139.4375 C 103.804688 139.09375 105.144531 138.695312 106.464844 138.242188 C 107.789062 137.789062 109.089844 137.28125 110.371094 136.71875 C 111.652344 136.160156 112.90625 135.546875 114.136719 134.882812 C 115.367188 134.214844 116.570312 133.5 117.738281 132.738281 C 118.910156 131.972656 120.046875 131.164062 121.152344 130.304688 C 122.253906 129.445312 123.324219 128.542969 124.351562 127.597656 C 125.382812 126.652344 126.371094 125.664062 127.316406 124.636719 C 128.265625 123.609375 129.167969 122.542969 130.027344 121.441406 C 130.890625 120.335938 131.703125 119.199219 132.46875 118.03125 C 133.234375 116.859375 133.949219 115.660156 134.617188 114.433594 C 135.28125 113.203125 135.898438 111.949219 136.460938 110.667969 C 137.023438 109.386719 137.535156 108.085938 137.988281 106.765625 C 138.445312 105.445312 138.84375 104.105469 139.191406 102.75 L 370.5 102.75 C 371.335938 102.75 372.167969 102.667969 372.988281 102.503906 C 373.808594 102.339844 374.605469 102.101562 375.378906 101.78125 C 376.152344 101.460938 376.886719 101.066406 377.582031 100.601562 C 378.28125 100.136719 378.921875 99.609375 379.515625 99.015625 C 380.109375 98.421875 380.636719 97.78125 381.101562 97.082031 C 381.566406 96.386719 381.960938 95.652344 382.28125 94.878906 C 382.601562 94.105469 382.839844 93.308594 383.003906 92.488281 C 383.167969 91.667969 383.25 90.835938 383.25 90 C 383.25 89.164062 383.167969 88.332031 383.003906 87.511719 C 382.839844 86.691406 382.601562 85.894531 382.28125 85.121094 C 381.960938 84.347656 381.566406 83.613281 381.101562 82.917969 C 380.636719 82.21875 380.109375 81.578125 379.515625 80.984375 C 378.921875 80.390625 378.28125 79.863281 377.582031 79.398438 C 376.886719 78.933594 376.152344 78.539062 375.378906 78.21875 C 374.605469 77.898438 373.808594 77.660156 372.988281 77.496094 C 372.167969 77.332031 371.335938 77.25 370.5 77.25 Z M 90 115.5 C 89.164062 115.5 88.332031 115.460938 87.5 115.378906 C 86.667969 115.296875 85.84375 115.171875 85.023438 115.011719 C 84.207031 114.847656 83.398438 114.644531 82.597656 114.402344 C 81.796875 114.160156 81.011719 113.878906 80.242188 113.558594 C 79.46875 113.238281 78.714844 112.882812 77.980469 112.488281 C 77.242188 112.09375 76.527344 111.667969 75.832031 111.203125 C 75.136719 110.738281 74.46875 110.242188 73.824219 109.710938 C 73.175781 109.183594 72.558594 108.621094 71.96875 108.03125 C 71.378906 107.441406 70.816406 106.824219 70.289062 106.175781 C 69.757812 105.53125 69.261719 104.863281 68.796875 104.167969 C 68.332031 103.472656 67.90625 102.757812 67.511719 102.019531 C 67.117188 101.285156 66.761719 100.53125 66.441406 99.757812 C 66.121094 98.988281 65.839844 98.203125 65.597656 97.402344 C 65.355469 96.601562 65.152344 95.792969 64.988281 94.976562 C 64.828125 94.15625 64.703125 93.332031 64.621094 92.5 C 64.539062 91.667969 64.5 90.835938 64.5 90 C 64.5 89.164062 64.539062 88.332031 64.621094 87.5 C 64.703125 86.667969 64.828125 85.84375 64.988281 85.023438 C 65.152344 84.207031 65.355469 83.398438 65.597656 82.597656 C 65.839844 81.796875 66.121094 81.011719 66.441406 80.242188 C 66.761719 79.46875 67.117188 78.714844 67.511719 77.980469 C 67.90625 77.242188 68.332031 76.527344 68.796875 75.832031 C 69.261719 75.136719 69.757812 74.46875 70.289062 73.824219 C 70.816406 73.175781 71.378906 72.558594 71.96875 71.96875 C 72.558594 71.378906 73.175781 70.816406 73.824219 70.289062 C 74.46875 69.757812 75.136719 69.261719 75.832031 68.796875 C 76.527344 68.332031 77.242188 67.90625 77.980469 67.511719 C 78.714844 67.117188 79.46875 66.761719 80.242188 66.441406 C 81.011719 66.121094 81.796875 65.839844 82.597656 65.597656 C 83.398438 65.355469 84.207031 65.152344 85.023438 64.988281 C 85.84375 64.828125 86.667969 64.703125 87.5 64.621094 C 88.332031 64.539062 89.164062 64.5 90 64.5 C 90.835938 64.5 91.667969 64.539062 92.5 64.621094 C 93.332031 64.703125 94.15625 64.828125 94.976562 64.988281 C 95.792969 65.152344 96.601562 65.355469 97.402344 65.597656 C 98.203125 65.839844 98.988281 66.121094 99.757812 66.441406 C 100.53125 66.761719 101.285156 67.117188 102.019531 67.511719 C 102.757812 67.90625 103.472656 68.332031 104.167969 68.796875 C 104.863281 69.261719 105.53125 69.757812 106.175781 70.289062 C 106.824219 70.816406 107.441406 71.378906 108.03125 71.96875 C 108.621094 72.558594 109.183594 73.175781 109.710938 73.824219 C 110.242188 74.46875 110.738281 75.136719 111.203125 75.832031 C 111.667969 76.527344 112.09375 77.242188 112.488281 77.980469 C 112.882812 78.714844 113.238281 79.46875 113.558594 80.242188 C 113.878906 81.011719 114.160156 81.796875 114.402344 82.597656 C 114.644531 83.398438 114.847656 84.207031 115.011719 85.023438 C 115.171875 85.84375 115.296875 86.667969 115.378906 87.5 C 115.460938 88.332031 115.5 89.164062 115.5 90 C 115.5 90.835938 115.460938 91.667969 115.378906 92.5 C 115.296875 93.332031 115.171875 94.15625 115.011719 94.976562 C 114.847656 95.792969 114.644531 96.601562 114.402344 97.402344 C 114.160156 98.203125 113.878906 98.988281 113.558594 99.757812 C 113.238281 100.53125 112.882812 101.285156 112.488281 102.019531 C 112.09375 102.757812 111.667969 103.472656 111.203125 104.167969 C 110.738281 104.863281 110.242188 105.53125 109.710938 106.175781 C 109.183594 106.824219 108.621094 107.441406 108.03125 108.03125 C 107.441406 108.621094 106.824219 109.183594 106.175781 109.710938 C 105.53125 110.242188 104.863281 110.738281 104.167969 111.203125 C 103.472656 111.667969 102.757812 112.09375 102.019531 112.488281 C 101.285156 112.882812 100.53125 113.238281 99.757812 113.558594 C 98.988281 113.878906 98.203125 114.160156 97.402344 114.402344 C 96.601562 114.644531 95.792969 114.847656 94.976562 115.011719 C 94.15625 115.171875 93.332031 115.296875 92.5 115.378906 C 91.667969 115.460938 90.835938 115.5 90 115.5 Z M 90 115.5 " fill-opacity="1" fill-rule="nonzero"/></g><g clip-path="url(#b0b4428513)"><path fill="#000000" d="M 370.5 281.25 L 202.941406 281.25 C 202.59375 279.894531 202.195312 278.554688 201.738281 277.234375 C 201.285156 275.914062 200.773438 274.613281 200.210938 273.332031 C 199.648438 272.050781 199.03125 270.796875 198.367188 269.566406 C 197.699219 268.339844 196.984375 267.140625 196.21875 265.96875 C 195.453125 264.800781 194.640625 263.664062 193.777344 262.558594 C 192.917969 261.457031 192.015625 260.390625 191.066406 259.363281 C 190.121094 258.335938 189.132812 257.347656 188.101562 256.402344 C 187.074219 255.457031 186.003906 254.554688 184.902344 253.695312 C 183.796875 252.835938 182.660156 252.027344 181.488281 251.261719 C 180.320312 250.5 179.117188 249.785156 177.886719 249.117188 C 176.65625 248.453125 175.402344 247.839844 174.121094 247.28125 C 172.839844 246.71875 171.539062 246.210938 170.214844 245.757812 C 168.894531 245.304688 167.554688 244.90625 166.199219 244.5625 C 164.84375 244.21875 163.476562 243.933594 162.097656 243.703125 C 160.71875 243.472656 159.332031 243.300781 157.9375 243.183594 C 156.542969 243.070312 155.148438 243.011719 153.75 243.011719 C 152.351562 243.011719 150.957031 243.070312 149.5625 243.183594 C 148.167969 243.300781 146.78125 243.472656 145.402344 243.703125 C 144.023438 243.933594 142.65625 244.21875 141.300781 244.5625 C 139.945312 244.90625 138.605469 245.304688 137.285156 245.757812 C 135.960938 246.210938 134.660156 246.71875 133.378906 247.28125 C 132.097656 247.839844 130.84375 248.453125 129.613281 249.117188 C 128.382812 249.785156 127.179688 250.5 126.011719 251.261719 C 124.839844 252.027344 123.703125 252.835938 122.597656 253.695312 C 121.492188 254.554688 120.425781 255.457031 119.398438 256.402344 C 118.367188 257.347656 117.378906 258.335938 116.433594 259.363281 C 115.484375 260.390625 114.582031 261.457031 113.722656 262.558594 C 112.859375 263.664062 112.046875 264.800781 111.28125 265.96875 C 110.515625 267.140625 109.800781 268.339844 109.132812 269.566406 C 108.46875 270.796875 107.851562 272.050781 107.289062 273.332031 C 106.726562 274.613281 106.214844 275.914062 105.761719 277.234375 C 105.304688 278.554688 104.90625 279.894531 104.558594 281.25 L 13.5 281.25 C 12.664062 281.25 11.832031 281.332031 11.011719 281.496094 C 10.191406 281.660156 9.394531 281.898438 8.621094 282.21875 C 7.847656 282.539062 7.113281 282.933594 6.417969 283.398438 C 5.71875 283.863281 5.078125 284.390625 4.484375 284.984375 C 3.890625 285.578125 3.363281 286.21875 2.898438 286.917969 C 2.433594 287.613281 2.039062 288.347656 1.71875 289.121094 C 1.398438 289.894531 1.160156 290.691406 0.996094 291.511719 C 0.832031 292.332031 0.75 293.164062 0.75 294 C 0.75 294.835938 0.832031 295.667969 0.996094 296.488281 C 1.160156 297.308594 1.398438 298.105469 1.71875 298.878906 C 2.039062 299.652344 2.433594 300.386719 2.898438 301.082031 C 3.363281 301.78125 3.890625 302.421875 4.484375 303.015625 C 5.078125 303.609375 5.71875 304.136719 6.417969 304.601562 C 7.113281 305.066406 7.847656 305.460938 8.621094 305.78125 C 9.394531 306.101562 10.191406 306.339844 11.011719 306.503906 C 11.832031 306.667969 12.664062 306.75 13.5 306.75 L 104.558594 306.75 C 104.90625 308.105469 105.304688 309.445312 105.761719 310.765625 C 106.214844 312.085938 106.726562 313.386719 107.289062 314.667969 C 107.851562 315.949219 108.46875 317.203125 109.132812 318.433594 C 109.800781 319.660156 110.515625 320.859375 111.28125 322.03125 C 112.046875 323.199219 112.859375 324.335938 113.722656 325.441406 C 114.582031 326.542969 115.484375 327.609375 116.433594 328.636719 C 117.378906 329.664062 118.367188 330.652344 119.398438 331.597656 C 120.425781 332.542969 121.496094 333.445312 122.597656 334.304688 C 123.703125 335.164062 124.839844 335.972656 126.011719 336.738281 C 127.179688 337.5 128.382812 338.214844 129.613281 338.882812 C 130.84375 339.546875 132.097656 340.160156 133.378906 340.71875 C 134.660156 341.28125 135.960938 341.789062 137.285156 342.242188 C 138.605469 342.695312 139.945312 343.09375 141.300781 343.4375 C 142.65625 343.78125 144.023438 344.066406 145.402344 344.296875 C 146.78125 344.527344 148.167969 344.699219 149.5625 344.816406 C 150.957031 344.929688 152.351562 344.988281 153.75 344.988281 C 155.148438 344.988281 156.542969 344.929688 157.9375 344.816406 C 159.332031 344.699219 160.71875 344.527344 162.097656 344.296875 C 163.476562 344.066406 164.84375 343.78125 166.199219 343.4375 C 167.554688 343.09375 168.894531 342.695312 170.214844 342.242188 C 171.539062 341.789062 172.839844 341.28125 174.121094 340.71875 C 175.402344 340.160156 176.65625 339.546875 177.886719 338.882812 C 179.117188 338.214844 180.320312 337.5 181.488281 336.738281 C 182.660156 335.972656 183.796875 335.164062 184.902344 334.304688 C 186.003906 333.445312 187.074219 332.542969 188.101562 331.597656 C 189.132812 330.652344 190.121094 329.664062 191.066406 328.636719 C 192.015625 327.609375 192.917969 326.542969 193.777344 325.441406 C 194.640625 324.335938 195.453125 323.199219 196.21875 322.03125 C 196.984375 320.859375 197.699219 319.660156 198.367188 318.433594 C 199.03125 317.203125 199.648438 315.949219 200.210938 314.667969 C 200.773438 313.386719 201.285156 312.085938 201.738281 310.765625 C 202.195312 309.445312 202.59375 308.105469 202.941406 306.75 L 370.5 306.75 C 371.335938 306.75 372.167969 306.667969 372.988281 306.503906 C 373.808594 306.339844 374.605469 306.101562 375.378906 305.78125 C 376.152344 305.460938 376.886719 305.066406 377.582031 304.601562 C 378.28125 304.136719 378.921875 303.609375 379.515625 303.015625 C 380.109375 302.421875 380.636719 301.78125 381.101562 301.082031 C 381.566406 300.386719 381.960938 299.652344 382.28125 298.878906 C 382.601562 298.105469 382.839844 297.308594 383.003906 296.488281 C 383.167969 295.667969 383.25 294.835938 383.25 294 C 383.25 293.164062 383.167969 292.332031 383.003906 291.511719 C 382.839844 290.691406 382.601562 289.894531 382.28125 289.121094 C 381.960938 288.347656 381.566406 287.613281 381.101562 286.917969 C 380.636719 286.21875 380.109375 285.578125 379.515625 284.984375 C 378.921875 284.390625 378.28125 283.863281 377.582031 283.398438 C 376.886719 282.933594 376.152344 282.539062 375.378906 282.21875 C 374.605469 281.898438 373.808594 281.660156 372.988281 281.496094 C 372.167969 281.332031 371.335938 281.25 370.5 281.25 Z M 153.75 319.5 C 152.914062 319.5 152.082031 319.460938 151.25 319.378906 C 150.417969 319.296875 149.59375 319.171875 148.773438 319.011719 C 147.957031 318.847656 147.148438 318.644531 146.347656 318.402344 C 145.546875 318.160156 144.761719 317.878906 143.992188 317.558594 C 143.21875 317.238281 142.464844 316.882812 141.730469 316.488281 C 140.992188 316.09375 140.277344 315.667969 139.582031 315.203125 C 138.886719 314.738281 138.21875 314.242188 137.574219 313.710938 C 136.925781 313.183594 136.308594 312.621094 135.71875 312.03125 C 135.128906 311.441406 134.566406 310.824219 134.039062 310.175781 C 133.507812 309.53125 133.011719 308.863281 132.546875 308.167969 C 132.082031 307.472656 131.65625 306.757812 131.261719 306.019531 C 130.867188 305.285156 130.511719 304.53125 130.191406 303.757812 C 129.871094 302.988281 129.589844 302.203125 129.347656 301.402344 C 129.105469 300.601562 128.902344 299.792969 128.738281 298.976562 C 128.578125 298.15625 128.453125 297.332031 128.371094 296.5 C 128.289062 295.667969 128.25 294.835938 128.25 294 C 128.25 293.164062 128.289062 292.332031 128.371094 291.5 C 128.453125 290.667969 128.578125 289.84375 128.738281 289.023438 C 128.902344 288.207031 129.105469 287.398438 129.347656 286.597656 C 129.589844 285.796875 129.871094 285.011719 130.191406 284.242188 C 130.511719 283.46875 130.867188 282.714844 131.261719 281.980469 C 131.65625 281.242188 132.082031 280.527344 132.546875 279.832031 C 133.011719 279.136719 133.507812 278.46875 134.039062 277.824219 C 134.566406 277.175781 135.128906 276.558594 135.71875 275.96875 C 136.308594 275.378906 136.925781 274.816406 137.574219 274.289062 C 138.21875 273.757812 138.886719 273.261719 139.582031 272.796875 C 140.277344 272.332031 140.992188 271.90625 141.730469 271.511719 C 142.464844 271.117188 143.21875 270.761719 143.992188 270.441406 C 144.761719 270.121094 145.546875 269.839844 146.347656 269.597656 C 147.148438 269.355469 147.957031 269.152344 148.773438 268.988281 C 149.59375 268.828125 150.417969 268.703125 151.25 268.621094 C 152.082031 268.539062 152.914062 268.5 153.75 268.5 C 154.585938 268.5 155.417969 268.539062 156.25 268.621094 C 157.082031 268.703125 157.90625 268.828125 158.726562 268.988281 C 159.542969 269.152344 160.351562 269.355469 161.152344 269.597656 C 161.953125 269.839844 162.738281 270.121094 163.507812 270.441406 C 164.28125 270.761719 165.035156 271.117188 165.769531 271.511719 C 166.507812 271.90625 167.222656 272.332031 167.917969 272.796875 C 168.613281 273.261719 169.28125 273.757812 169.925781 274.289062 C 170.574219 274.816406 171.191406 275.378906 171.78125 275.96875 C 172.371094 276.558594 172.933594 277.175781 173.460938 277.824219 C 173.992188 278.46875 174.488281 279.136719 174.953125 279.832031 C 175.417969 280.527344 175.84375 281.242188 176.238281 281.980469 C 176.632812 282.714844 176.988281 283.46875 177.308594 284.242188 C 177.628906 285.011719 177.910156 285.796875 178.152344 286.597656 C 178.394531 287.398438 178.597656 288.207031 178.761719 289.023438 C 178.921875 289.84375 179.046875 290.667969 179.128906 291.5 C 179.210938 292.332031 179.25 293.164062 179.25 294 C 179.25 294.835938 179.210938 295.667969 179.128906 296.5 C 179.046875 297.332031 178.921875 298.15625 178.761719 298.976562 C 178.597656 299.792969 178.394531 300.601562 178.152344 301.402344 C 177.910156 302.203125 177.628906 302.988281 177.308594 303.757812 C 176.988281 304.53125 176.632812 305.285156 176.238281 306.019531 C 175.84375 306.757812 175.417969 307.472656 174.953125 308.167969 C 174.488281 308.863281 173.992188 309.53125 173.460938 310.175781 C 172.933594 310.824219 172.371094 311.441406 171.78125 312.03125 C 171.191406 312.621094 170.574219 313.183594 169.925781 313.710938 C 169.28125 314.242188 168.613281 314.738281 167.917969 315.203125 C 167.222656 315.667969 166.507812 316.09375 165.769531 316.488281 C 165.035156 316.882812 164.28125 317.238281 163.507812 317.558594 C 162.738281 317.878906 161.953125 318.160156 161.152344 318.402344 C 160.351562 318.644531 159.542969 318.847656 158.726562 319.011719 C 157.90625 319.171875 157.082031 319.296875 156.25 319.378906 C 155.417969 319.460938 154.585938 319.5 153.75 319.5 Z M 153.75 319.5 " fill-opacity="1" fill-rule="nonzero"/></g><g clip-path="url(#b47e8ce940)"><path fill="#000000" d="M 370.5 179.25 L 355.941406 179.25 C 355.59375 177.894531 355.195312 176.554688 354.738281 175.234375 C 354.285156 173.914062 353.773438 172.613281 353.210938 171.332031 C 352.648438 170.050781 352.03125 168.796875 351.367188 167.566406 C 350.699219 166.339844 349.984375 165.140625 349.21875 163.96875 C 348.453125 162.800781 347.640625 161.664062 346.777344 160.558594 C 345.917969 159.457031 345.015625 158.390625 344.066406 157.363281 C 343.121094 156.335938 342.132812 155.347656 341.101562 154.402344 C 340.074219 153.457031 339.003906 152.554688 337.902344 151.695312 C 336.796875 150.835938 335.660156 150.027344 334.488281 149.261719 C 333.316406 148.5 332.117188 147.785156 330.886719 147.117188 C 329.65625 146.453125 328.402344 145.839844 327.121094 145.28125 C 325.839844 144.71875 324.539062 144.210938 323.214844 143.757812 C 321.894531 143.304688 320.554688 142.90625 319.199219 142.5625 C 317.84375 142.21875 316.476562 141.933594 315.097656 141.703125 C 313.71875 141.472656 312.332031 141.300781 310.9375 141.183594 C 309.542969 141.070312 308.148438 141.011719 306.75 141.011719 C 305.351562 141.011719 303.957031 141.070312 302.5625 141.183594 C 301.167969 141.300781 299.78125 141.472656 298.402344 141.703125 C 297.023438 141.933594 295.65625 142.21875 294.300781 142.5625 C 292.945312 142.90625 291.605469 143.304688 290.285156 143.757812 C 288.960938 144.210938 287.660156 144.71875 286.378906 145.28125 C 285.097656 145.839844 283.84375 146.453125 282.613281 147.117188 C 281.382812 147.785156 280.179688 148.5 279.011719 149.261719 C 277.839844 150.027344 276.703125 150.835938 275.597656 151.695312 C 274.492188 152.554688 273.425781 153.457031 272.398438 154.402344 C 271.367188 155.347656 270.378906 156.335938 269.433594 157.363281 C 268.484375 158.390625 267.582031 159.457031 266.722656 160.558594 C 265.859375 161.664062 265.046875 162.800781 264.28125 163.96875 C 263.515625 165.140625 262.800781 166.339844 262.132812 167.566406 C 261.46875 168.796875 260.851562 170.050781 260.289062 171.332031 C 259.726562 172.613281 259.214844 173.914062 258.761719 175.234375 C 258.304688 176.554688 257.90625 177.894531 257.558594 179.25 L 13.5 179.25 C 12.664062 179.25 11.832031 179.332031 11.011719 179.496094 C 10.191406 179.660156 9.394531 179.898438 8.621094 180.21875 C 7.847656 180.539062 7.113281 180.933594 6.417969 181.398438 C 5.71875 181.863281 5.078125 182.390625 4.484375 182.984375 C 3.890625 183.578125 3.363281 184.21875 2.898438 184.917969 C 2.433594 185.613281 2.039062 186.347656 1.71875 187.121094 C 1.398438 187.894531 1.160156 188.691406 0.996094 189.511719 C 0.832031 190.332031 0.75 191.164062 0.75 192 C 0.75 192.835938 0.832031 193.667969 0.996094 194.488281 C 1.160156 195.308594 1.398438 196.105469 1.71875 196.878906 C 2.039062 197.652344 2.433594 198.386719 2.898438 199.082031 C 3.363281 199.78125 3.890625 200.421875 4.484375 201.015625 C 5.078125 201.609375 5.71875 202.136719 6.417969 202.601562 C 7.113281 203.066406 7.847656 203.460938 8.621094 203.78125 C 9.394531 204.101562 10.191406 204.339844 11.011719 204.503906 C 11.832031 204.667969 12.664062 204.75 13.5 204.75 L 257.558594 204.75 C 257.90625 206.105469 258.304688 207.445312 258.761719 208.765625 C 259.214844 210.085938 259.726562 211.386719 260.289062 212.667969 C 260.851562 213.949219 261.46875 215.203125 262.132812 216.433594 C 262.800781 217.660156 263.515625 218.859375 264.28125 220.03125 C 265.046875 221.199219 265.859375 222.335938 266.722656 223.441406 C 267.582031 224.542969 268.484375 225.609375 269.433594 226.636719 C 270.378906 227.664062 271.367188 228.652344 272.398438 229.597656 C 273.425781 230.542969 274.492188 231.445312 275.597656 232.304688 C 276.703125 233.164062 277.839844 233.972656 279.011719 234.738281 C 280.179688 235.5 281.382812 236.214844 282.613281 236.882812 C 283.84375 237.546875 285.097656 238.160156 286.378906 238.71875 C 287.660156 239.28125 288.960938 239.789062 290.285156 240.242188 C 291.605469 240.695312 292.945312 241.09375 294.300781 241.4375 C 295.65625 241.78125 297.023438 242.066406 298.402344 242.296875 C 299.78125 242.527344 301.167969 242.699219 302.5625 242.816406 C 303.957031 242.929688 305.351562 242.988281 306.75 242.988281 C 308.148438 242.988281 309.542969 242.929688 310.9375 242.816406 C 312.332031 242.699219 313.71875 242.527344 315.097656 242.296875 C 316.476562 242.066406 317.84375 241.78125 319.199219 241.4375 C 320.554688 241.09375 321.894531 240.695312 323.214844 240.242188 C 324.539062 239.789062 325.839844 239.28125 327.121094 238.71875 C 328.402344 238.160156 329.65625 237.546875 330.886719 236.882812 C 332.117188 236.214844 333.316406 235.5 334.488281 234.738281 C 335.660156 233.972656 336.796875 233.164062 337.902344 232.304688 C 339.003906 231.445312 340.074219 230.542969 341.101562 229.597656 C 342.132812 228.652344 343.121094 227.664062 344.066406 226.636719 C 345.015625 225.609375 345.917969 224.542969 346.777344 223.441406 C 347.640625 222.335938 348.453125 221.199219 349.21875 220.03125 C 349.984375 218.859375 350.699219 217.660156 351.367188 216.433594 C 352.03125 215.203125 352.648438 213.949219 353.210938 212.667969 C 353.773438 211.386719 354.285156 210.085938 354.738281 208.765625 C 355.195312 207.445312 355.59375 206.105469 355.941406 204.75 L 370.5 204.75 C 371.335938 204.75 372.167969 204.667969 372.988281 204.503906 C 373.808594 204.339844 374.605469 204.101562 375.378906 203.78125 C 376.152344 203.460938 376.886719 203.066406 377.582031 202.601562 C 378.28125 202.136719 378.921875 201.609375 379.515625 201.015625 C 380.109375 200.421875 380.636719 199.78125 381.101562 199.082031 C 381.566406 198.386719 381.960938 197.652344 382.28125 196.878906 C 382.601562 196.105469 382.839844 195.308594 383.003906 194.488281 C 383.167969 193.667969 383.25 192.835938 383.25 192 C 383.25 191.164062 383.167969 190.332031 383.003906 189.511719 C 382.839844 188.691406 382.601562 187.894531 382.28125 187.121094 C 381.960938 186.347656 381.566406 185.613281 381.101562 184.917969 C 380.636719 184.21875 380.109375 183.578125 379.515625 182.984375 C 378.921875 182.390625 378.28125 181.863281 377.582031 181.398438 C 376.886719 180.933594 376.152344 180.539062 375.378906 180.21875 C 374.605469 179.898438 373.808594 179.660156 372.988281 179.496094 C 372.167969 179.332031 371.335938 179.25 370.5 179.25 Z M 306.75 217.5 C 305.914062 217.5 305.082031 217.460938 304.25 217.378906 C 303.417969 217.296875 302.59375 217.171875 301.773438 217.011719 C 300.957031 216.847656 300.148438 216.644531 299.347656 216.402344 C 298.546875 216.160156 297.761719 215.878906 296.992188 215.558594 C 296.21875 215.238281 295.464844 214.882812 294.730469 214.488281 C 293.992188 214.09375 293.277344 213.667969 292.582031 213.203125 C 291.886719 212.738281 291.21875 212.242188 290.574219 211.710938 C 289.925781 211.183594 289.308594 210.621094 288.71875 210.03125 C 288.128906 209.441406 287.566406 208.824219 287.039062 208.175781 C 286.507812 207.53125 286.011719 206.863281 285.546875 206.167969 C 285.082031 205.472656 284.65625 204.757812 284.261719 204.019531 C 283.867188 203.285156 283.511719 202.53125 283.191406 201.757812 C 282.871094 200.988281 282.589844 200.203125 282.347656 199.402344 C 282.105469 198.601562 281.902344 197.792969 281.738281 196.976562 C 281.578125 196.15625 281.453125 195.332031 281.371094 194.5 C 281.289062 193.667969 281.25 192.835938 281.25 192 C 281.25 191.164062 281.289062 190.332031 281.371094 189.5 C 281.453125 188.667969 281.578125 187.84375 281.738281 187.023438 C 281.902344 186.207031 282.105469 185.398438 282.347656 184.597656 C 282.589844 183.796875 282.871094 183.011719 283.191406 182.242188 C 283.511719 181.46875 283.867188 180.714844 284.261719 179.980469 C 284.65625 179.242188 285.082031 178.527344 285.546875 177.832031 C 286.011719 177.136719 286.507812 176.46875 287.039062 175.824219 C 287.566406 175.175781 288.128906 174.558594 288.71875 173.96875 C 289.308594 173.378906 289.925781 172.816406 290.574219 172.289062 C 291.21875 171.757812 291.886719 171.261719 292.582031 170.796875 C 293.277344 170.332031 293.992188 169.90625 294.730469 169.511719 C 295.464844 169.117188 296.21875 168.761719 296.992188 168.441406 C 297.761719 168.121094 298.546875 167.839844 299.347656 167.597656 C 300.148438 167.355469 300.957031 167.152344 301.773438 166.988281 C 302.59375 166.828125 303.417969 166.703125 304.25 166.621094 C 305.082031 166.539062 305.914062 166.5 306.75 166.5 C 307.585938 166.5 308.417969 166.539062 309.25 166.621094 C 310.082031 166.703125 310.90625 166.828125 311.726562 166.988281 C 312.542969 167.152344 313.351562 167.355469 314.152344 167.597656 C 314.953125 167.839844 315.738281 168.121094 316.507812 168.441406 C 317.28125 168.761719 318.035156 169.117188 318.769531 169.511719 C 319.507812 169.90625 320.222656 170.332031 320.917969 170.796875 C 321.613281 171.261719 322.28125 171.757812 322.925781 172.289062 C 323.574219 172.816406 324.191406 173.378906 324.78125 173.96875 C 325.371094 174.558594 325.933594 175.175781 326.460938 175.824219 C 326.992188 176.46875 327.488281 177.136719 327.953125 177.832031 C 328.417969 178.527344 328.84375 179.242188 329.238281 179.980469 C 329.632812 180.714844 329.988281 181.46875 330.308594 182.242188 C 330.628906 183.011719 330.910156 183.796875 331.152344 184.597656 C 331.394531 185.398438 331.597656 186.207031 331.761719 187.023438 C 331.921875 187.84375 332.046875 188.667969 332.128906 189.5 C 332.210938 190.332031 332.25 191.164062 332.25 192 C 332.25 192.835938 332.210938 193.667969 332.128906 194.5 C 332.046875 195.332031 331.921875 196.15625 331.761719 196.976562 C 331.597656 197.792969 331.394531 198.601562 331.152344 199.402344 C 330.910156 200.203125 330.628906 200.988281 330.308594 201.757812 C 329.988281 202.53125 329.632812 203.285156 329.238281 204.019531 C 328.84375 204.757812 328.417969 205.472656 327.953125 206.167969 C 327.488281 206.863281 326.992188 207.53125 326.460938 208.175781 C 325.933594 208.824219 325.371094 209.441406 324.78125 210.03125 C 324.191406 210.621094 323.574219 211.183594 322.925781 211.710938 C 322.28125 212.242188 321.613281 212.738281 320.917969 213.203125 C 320.222656 213.667969 319.507812 214.09375 318.769531 214.488281 C 318.035156 214.882812 317.28125 215.238281 316.507812 215.558594 C 315.738281 215.878906 314.953125 216.160156 314.152344 216.402344 C 313.351562 216.644531 312.542969 216.847656 311.726562 217.011719 C 310.90625 217.171875 310.082031 217.296875 309.25 217.378906 C 308.417969 217.460938 307.585938 217.5 306.75 217.5 Z M 306.75 217.5 " fill-opacity="1" fill-rule="nonzero"/></g></svg>