<svg xmlns="http://www.w3.org/2000/svg" xmlns:xlink="http://www.w3.org/1999/xlink" width="512" zoomAndPan="magnify" viewBox="0 0 384 383.999986" height="512" preserveAspectRatio="xMidYMid meet" version="1.0"><defs><clipPath id="600cfe2689"><path d="M 31.828125 0.75 L 352.078125 0.75 L 352.078125 383.25 L 31.828125 383.25 Z M 31.828125 0.75 " clip-rule="nonzero"/></clipPath></defs><g clip-path="url(#600cfe2689)"><path fill="#000000" d="M 74.871094 0.726562 C 51.285156 0.726562 31.859375 20.160156 31.859375 43.753906 L 31.859375 340.15625 C 31.859375 363.75 51.285156 383.179688 74.871094 383.179688 L 294.71875 383.179688 C 318.304688 383.179688 337.734375 363.75 337.734375 340.15625 L 337.734375 321.03125 C 337.746094 320.082031 337.664062 319.140625 337.492188 318.207031 C 337.316406 317.269531 337.054688 316.363281 336.699219 315.480469 C 336.347656 314.597656 335.910156 313.761719 335.386719 312.964844 C 334.867188 312.171875 334.273438 311.4375 333.605469 310.757812 C 332.9375 310.082031 332.210938 309.476562 331.425781 308.945312 C 330.636719 308.414062 329.804688 307.964844 328.929688 307.597656 C 328.050781 307.230469 327.148438 306.953125 326.21875 306.765625 C 325.285156 306.578125 324.34375 306.484375 323.394531 306.484375 C 322.445312 306.484375 321.503906 306.578125 320.574219 306.765625 C 319.640625 306.953125 318.738281 307.230469 317.859375 307.597656 C 316.984375 307.964844 316.152344 308.414062 315.363281 308.945312 C 314.578125 309.476562 313.851562 310.082031 313.183594 310.757812 C 312.515625 311.4375 311.921875 312.171875 311.402344 312.964844 C 310.882812 313.761719 310.445312 314.597656 310.089844 315.480469 C 309.734375 316.363281 309.472656 317.269531 309.296875 318.207031 C 309.125 319.140625 309.042969 320.082031 309.058594 321.03125 L 309.058594 340.15625 C 309.058594 348.230469 302.789062 354.496094 294.71875 354.496094 L 74.871094 354.496094 C 66.800781 354.496094 60.535156 348.230469 60.535156 340.15625 L 60.535156 43.753906 C 60.535156 35.679688 66.800781 29.410156 74.871094 29.410156 L 294.71875 29.410156 C 302.789062 29.410156 309.058594 35.679688 309.058594 43.753906 L 309.058594 62.875 C 309.042969 63.824219 309.125 64.769531 309.296875 65.703125 C 309.472656 66.636719 309.734375 67.546875 310.089844 68.425781 C 310.445312 69.308594 310.882812 70.148438 311.402344 70.941406 C 311.921875 71.738281 312.515625 72.472656 313.183594 73.148438 C 313.851562 73.824219 314.578125 74.429688 315.363281 74.960938 C 316.152344 75.496094 316.984375 75.945312 317.859375 76.3125 C 318.738281 76.675781 319.640625 76.953125 320.574219 77.140625 C 321.503906 77.328125 322.445312 77.421875 323.394531 77.421875 C 324.34375 77.421875 325.285156 77.328125 326.21875 77.140625 C 327.148438 76.953125 328.050781 76.675781 328.929688 76.3125 C 329.804688 75.945312 330.636719 75.496094 331.425781 74.960938 C 332.210938 74.429688 332.9375 73.824219 333.605469 73.148438 C 334.273438 72.472656 334.867188 71.738281 335.386719 70.941406 C 335.910156 70.148438 336.347656 69.308594 336.699219 68.425781 C 337.054688 67.546875 337.316406 66.636719 337.492188 65.703125 C 337.664062 64.769531 337.746094 63.824219 337.734375 62.875 L 337.734375 43.753906 C 337.734375 20.160156 318.304688 0.726562 294.71875 0.726562 Z M 280.230469 120.09375 C 279.519531 120.09375 278.8125 120.144531 278.109375 120.246094 C 277.40625 120.351562 276.714844 120.503906 276.035156 120.710938 C 275.355469 120.917969 274.695312 121.171875 274.050781 121.476562 C 273.410156 121.78125 272.792969 122.132812 272.203125 122.53125 C 271.613281 122.925781 271.054688 123.363281 270.53125 123.84375 C 270.007812 124.324219 269.519531 124.839844 269.070312 125.390625 C 268.621094 125.941406 268.21875 126.523438 267.855469 127.136719 C 267.492188 127.746094 267.179688 128.382812 266.910156 129.042969 C 266.644531 129.699219 266.425781 130.375 266.261719 131.066406 C 266.09375 131.757812 265.976562 132.457031 265.914062 133.164062 C 265.851562 133.875 265.839844 134.582031 265.882812 135.292969 C 265.925781 136 266.019531 136.703125 266.167969 137.398438 C 266.3125 138.097656 266.511719 138.777344 266.757812 139.441406 C 267.007812 140.109375 267.304688 140.753906 267.648438 141.375 C 267.992188 142 268.378906 142.589844 268.8125 143.15625 C 269.242188 143.722656 269.714844 144.25 270.226562 144.746094 L 303.082031 177.613281 L 117.886719 177.613281 C 116.9375 177.597656 115.992188 177.679688 115.058594 177.851562 C 114.125 178.027344 113.21875 178.289062 112.335938 178.644531 C 111.453125 179 110.617188 179.4375 109.820312 179.957031 C 109.027344 180.480469 108.292969 181.074219 107.617188 181.738281 C 106.9375 182.40625 106.335938 183.132812 105.800781 183.921875 C 105.269531 184.710938 104.820312 185.542969 104.453125 186.417969 C 104.089844 187.296875 103.8125 188.199219 103.625 189.132812 C 103.4375 190.0625 103.34375 191.003906 103.34375 191.953125 C 103.34375 192.90625 103.4375 193.84375 103.625 194.777344 C 103.8125 195.707031 104.089844 196.613281 104.453125 197.488281 C 104.820312 198.367188 105.269531 199.199219 105.800781 199.984375 C 106.335938 200.773438 106.9375 201.5 107.617188 202.167969 C 108.292969 202.835938 109.027344 203.429688 109.820312 203.949219 C 110.617188 204.472656 111.453125 204.910156 112.335938 205.261719 C 113.21875 205.617188 114.125 205.882812 115.058594 206.054688 C 115.992188 206.230469 116.9375 206.308594 117.886719 206.296875 L 303.082031 206.296875 L 270.226562 239.164062 C 269.558594 239.832031 268.960938 240.554688 268.4375 241.339844 C 267.910156 242.125 267.46875 242.953125 267.105469 243.824219 C 266.746094 244.695312 266.472656 245.59375 266.289062 246.519531 C 266.101562 247.445312 266.011719 248.378906 266.011719 249.324219 C 266.011719 250.269531 266.101562 251.203125 266.285156 252.128906 C 266.46875 253.054688 266.742188 253.953125 267.101562 254.824219 C 267.464844 255.699219 267.90625 256.527344 268.429688 257.3125 C 268.953125 258.09375 269.550781 258.820312 270.21875 259.488281 C 270.882812 260.15625 271.609375 260.753906 272.394531 261.277344 C 273.179688 261.800781 274.007812 262.242188 274.878906 262.605469 C 275.75 262.964844 276.648438 263.238281 277.574219 263.421875 C 278.5 263.605469 279.433594 263.699219 280.378906 263.695312 C 281.324219 263.695312 282.257812 263.605469 283.183594 263.417969 C 284.109375 263.234375 285.007812 262.960938 285.878906 262.601562 C 286.75 262.238281 287.578125 261.796875 288.359375 261.269531 C 289.144531 260.746094 289.871094 260.148438 290.539062 259.480469 L 347.886719 202.113281 C 348.558594 201.445312 349.152344 200.722656 349.679688 199.9375 C 350.203125 199.152344 350.648438 198.324219 351.007812 197.453125 C 351.371094 196.582031 351.644531 195.683594 351.828125 194.757812 C 352.011719 193.832031 352.105469 192.898438 352.105469 191.953125 C 352.105469 191.011719 352.011719 190.074219 351.828125 189.148438 C 351.644531 188.222656 351.371094 187.324219 351.007812 186.453125 C 350.648438 185.582031 350.203125 184.753906 349.679688 183.96875 C 349.152344 183.1875 348.558594 182.460938 347.886719 181.796875 L 290.539062 124.425781 C 289.183594 123.039062 287.613281 121.964844 285.824219 121.214844 C 284.035156 120.464844 282.171875 120.089844 280.230469 120.09375 Z M 280.230469 120.09375 " fill-opacity="1" fill-rule="nonzero"/></g></svg>