<svg xmlns="http://www.w3.org/2000/svg" xmlns:xlink="http://www.w3.org/1999/xlink" width="512" zoomAndPan="magnify" viewBox="0 0 384 383.999986" height="512" preserveAspectRatio="xMidYMid meet" version="1.0"><defs><clipPath id="53e156f7ce"><path d="M 0.773438 33.980469 L 383.242188 33.980469 L 383.242188 97.453125 L 0.773438 97.453125 Z M 0.773438 33.980469 " clip-rule="nonzero"/></clipPath><clipPath id="fdb472042d"><path d="M 0.773438 160 L 383.242188 160 L 383.242188 224 L 0.773438 224 Z M 0.773438 160 " clip-rule="nonzero"/></clipPath><clipPath id="f5b0d31d22"><path d="M 0.773438 286.390625 L 383.242188 286.390625 L 383.242188 349.730469 L 0.773438 349.730469 Z M 0.773438 286.390625 " clip-rule="nonzero"/></clipPath></defs><g clip-path="url(#53e156f7ce)"><path fill="#000000" d="M 351.625 97.199219 L 32.382812 97.199219 C 14.921875 97.199219 0.773438 83.046875 0.773438 65.589844 C 0.773438 48.136719 14.921875 33.984375 32.382812 33.984375 L 351.625 33.984375 C 369.085938 33.984375 383.234375 48.136719 383.234375 65.589844 C 383.234375 83.046875 369.085938 97.199219 351.625 97.199219 " fill-opacity="1" fill-rule="nonzero"/></g><g clip-path="url(#fdb472042d)"><path fill="#000000" d="M 351.625 223.632812 L 32.382812 223.632812 C 14.921875 223.632812 0.773438 209.484375 0.773438 192.023438 C 0.773438 174.566406 14.921875 160.417969 32.382812 160.417969 L 351.625 160.417969 C 369.085938 160.417969 383.234375 174.566406 383.234375 192.023438 C 383.234375 209.484375 369.085938 223.632812 351.625 223.632812 " fill-opacity="1" fill-rule="nonzero"/></g><g clip-path="url(#f5b0d31d22)"><path fill="#000000" d="M 351.625 350.070312 L 32.382812 350.070312 C 14.921875 350.070312 0.773438 335.921875 0.773438 318.460938 C 0.773438 301.003906 14.921875 286.851562 32.382812 286.851562 L 351.625 286.851562 C 369.085938 286.851562 383.234375 301.003906 383.234375 318.460938 C 383.234375 335.921875 369.085938 350.070312 351.625 350.070312 " fill-opacity="1" fill-rule="nonzero"/></g></svg>