<svg xmlns="http://www.w3.org/2000/svg" xmlns:xlink="http://www.w3.org/1999/xlink" width="512" zoomAndPan="magnify" viewBox="0 0 384 383.999986" height="512" preserveAspectRatio="xMidYMid meet" version="1.0"><defs><clipPath id="536e02cd3c"><path d="M 0.75 0.75 L 383.25 0.75 L 383.25 383.25 L 0.75 383.25 Z M 0.75 0.75 " clip-rule="nonzero"/></clipPath></defs><g clip-path="url(#536e02cd3c)"><path fill="#000000" d="M 192 383.25 C 297.625 383.25 383.25 297.625 383.25 192 C 383.25 86.375 297.625 0.75 192 0.75 C 86.375 0.75 0.75 86.375 0.75 192 C 0.75 297.625 86.375 383.25 192 383.25 Z M 251.765625 132.234375 C 251.765625 153.667969 240.484375 172.464844 223.535156 183.011719 L 239.8125 311.53125 L 144.1875 311.53125 L 160.464844 183.011719 C 143.515625 172.464844 132.234375 153.667969 132.234375 132.234375 C 132.234375 99.226562 158.992188 72.46875 192 72.46875 C 225.007812 72.46875 251.765625 99.226562 251.765625 132.234375 Z M 251.765625 132.234375 " fill-opacity="1" fill-rule="evenodd"/></g></svg>