<svg xmlns="http://www.w3.org/2000/svg" xmlns:xlink="http://www.w3.org/1999/xlink" width="512" zoomAndPan="magnify" viewBox="0 0 384 383.999986" height="512" preserveAspectRatio="xMidYMid meet" version="1.0"><path fill="#000000" d="M 291.28125 101.214844 C 291.28125 102.847656 291.242188 104.480469 291.160156 106.109375 C 291.082031 107.742188 290.960938 109.371094 290.800781 110.996094 C 290.640625 112.621094 290.441406 114.242188 290.199219 115.855469 C 289.960938 117.472656 289.679688 119.082031 289.363281 120.683594 C 289.042969 122.285156 288.6875 123.878906 288.289062 125.460938 C 287.890625 127.046875 287.457031 128.621094 286.980469 130.183594 C 286.507812 131.746094 285.996094 133.296875 285.445312 134.835938 C 284.894531 136.371094 284.304688 137.894531 283.679688 139.40625 C 283.054688 140.914062 282.394531 142.40625 281.695312 143.882812 C 280.996094 145.359375 280.261719 146.820312 279.492188 148.257812 C 278.722656 149.699219 277.914062 151.121094 277.074219 152.519531 C 276.234375 153.921875 275.363281 155.300781 274.453125 156.660156 C 273.546875 158.019531 272.605469 159.351562 271.632812 160.664062 C 270.660156 161.976562 269.652344 163.265625 268.617188 164.527344 C 267.582031 165.789062 266.511719 167.023438 265.414062 168.234375 C 264.320312 169.445312 263.191406 170.628906 262.035156 171.78125 C 260.882812 172.9375 259.699219 174.0625 258.488281 175.160156 C 257.277344 176.257812 256.039062 177.324219 254.777344 178.359375 C 253.511719 179.398438 252.226562 180.402344 250.914062 181.375 C 249.601562 182.347656 248.265625 183.289062 246.90625 184.195312 C 245.546875 185.101562 244.167969 185.976562 242.765625 186.816406 C 241.363281 187.65625 239.941406 188.460938 238.503906 189.230469 C 237.0625 190 235.601562 190.734375 234.125 191.433594 C 232.648438 192.128906 231.152344 192.792969 229.644531 193.417969 C 228.136719 194.042969 226.609375 194.628906 225.074219 195.179688 C 223.535156 195.730469 221.984375 196.242188 220.417969 196.71875 C 218.855469 197.191406 217.28125 197.625 215.695312 198.023438 C 214.109375 198.421875 212.515625 198.777344 210.914062 199.097656 C 209.3125 199.414062 207.703125 199.695312 206.085938 199.933594 C 204.46875 200.171875 202.847656 200.375 201.222656 200.535156 C 199.597656 200.695312 197.964844 200.8125 196.335938 200.894531 C 194.703125 200.972656 193.070312 201.015625 191.433594 201.015625 C 189.800781 201.015625 188.167969 200.972656 186.535156 200.894531 C 184.902344 200.8125 183.273438 200.695312 181.648438 200.535156 C 180.023438 200.375 178.402344 200.171875 176.785156 199.933594 C 175.167969 199.695312 173.558594 199.414062 171.957031 199.097656 C 170.355469 198.777344 168.761719 198.421875 167.175781 198.023438 C 165.589844 197.625 164.015625 197.191406 162.453125 196.71875 C 160.886719 196.242188 159.335938 195.730469 157.796875 195.179688 C 156.261719 194.628906 154.734375 194.042969 153.226562 193.417969 C 151.714844 192.792969 150.222656 192.128906 148.746094 191.433594 C 147.269531 190.734375 145.808594 190 144.367188 189.230469 C 142.925781 188.460938 141.507812 187.65625 140.105469 186.816406 C 138.703125 185.976562 137.324219 185.101562 135.964844 184.195312 C 134.605469 183.289062 133.269531 182.347656 131.957031 181.375 C 130.644531 180.402344 129.355469 179.398438 128.09375 178.359375 C 126.832031 177.324219 125.59375 176.257812 124.382812 175.160156 C 123.171875 174.0625 121.988281 172.9375 120.835938 171.78125 C 119.679688 170.628906 118.550781 169.445312 117.453125 168.234375 C 116.359375 167.023438 115.289062 165.789062 114.253906 164.527344 C 113.21875 163.265625 112.210938 161.976562 111.238281 160.664062 C 110.265625 159.351562 109.324219 158.019531 108.417969 156.660156 C 107.507812 155.300781 106.636719 153.921875 105.796875 152.519531 C 104.957031 151.121094 104.148438 149.699219 103.378906 148.257812 C 102.609375 146.820312 101.875 145.359375 101.175781 143.882812 C 100.476562 142.40625 99.816406 140.914062 99.191406 139.40625 C 98.566406 137.894531 97.976562 136.371094 97.425781 134.835938 C 96.875 133.296875 96.363281 131.746094 95.890625 130.183594 C 95.414062 128.621094 94.980469 127.046875 94.582031 125.460938 C 94.183594 123.878906 93.828125 122.285156 93.507812 120.683594 C 93.191406 119.082031 92.910156 117.472656 92.671875 115.855469 C 92.429688 114.242188 92.230469 112.621094 92.070312 110.996094 C 91.910156 109.371094 91.789062 107.742188 91.710938 106.109375 C 91.628906 104.480469 91.589844 102.847656 91.589844 101.214844 C 91.589844 99.578125 91.628906 97.949219 91.710938 96.316406 C 91.789062 94.683594 91.910156 93.054688 92.070312 91.429688 C 92.230469 89.804688 92.429688 88.183594 92.671875 86.570312 C 92.910156 84.953125 93.191406 83.34375 93.507812 81.742188 C 93.828125 80.140625 94.183594 78.546875 94.582031 76.964844 C 94.980469 75.378906 95.414062 73.804688 95.890625 72.242188 C 96.363281 70.679688 96.875 69.128906 97.425781 67.589844 C 97.976562 66.054688 98.566406 64.53125 99.191406 63.019531 C 99.816406 61.511719 100.476562 60.019531 101.175781 58.542969 C 101.875 57.066406 102.609375 55.609375 103.378906 54.167969 C 104.148438 52.726562 104.957031 51.304688 105.796875 49.90625 C 106.636719 48.503906 107.507812 47.125 108.417969 45.765625 C 109.324219 44.410156 110.265625 43.074219 111.238281 41.761719 C 112.210938 40.449219 113.21875 39.164062 114.253906 37.898438 C 115.289062 36.636719 116.359375 35.402344 117.453125 34.191406 C 118.550781 32.980469 119.679688 31.796875 120.835938 30.644531 C 121.988281 29.488281 123.171875 28.363281 124.382812 27.265625 C 125.59375 26.167969 126.832031 25.101562 128.09375 24.066406 C 129.355469 23.03125 130.644531 22.023438 131.957031 21.050781 C 133.269531 20.078125 134.605469 19.140625 135.964844 18.230469 C 137.324219 17.324219 138.703125 16.449219 140.105469 15.609375 C 141.507812 14.769531 142.925781 13.964844 144.367188 13.195312 C 145.808594 12.425781 147.269531 11.691406 148.746094 10.992188 C 150.222656 10.296875 151.714844 9.632812 153.226562 9.007812 C 154.734375 8.382812 156.261719 7.796875 157.796875 7.246094 C 159.335938 6.695312 160.886719 6.183594 162.453125 5.710938 C 164.015625 5.234375 165.589844 4.800781 167.175781 4.402344 C 168.761719 4.007812 170.355469 3.648438 171.957031 3.328125 C 173.558594 3.011719 175.167969 2.730469 176.785156 2.492188 C 178.402344 2.253906 180.023438 2.054688 181.648438 1.894531 C 183.273438 1.734375 184.902344 1.613281 186.535156 1.53125 C 188.167969 1.453125 189.800781 1.414062 191.433594 1.414062 C 193.070312 1.414062 194.703125 1.453125 196.335938 1.53125 C 197.964844 1.613281 199.597656 1.734375 201.222656 1.894531 C 202.847656 2.054688 204.46875 2.253906 206.085938 2.492188 C 207.703125 2.730469 209.3125 3.011719 210.914062 3.328125 C 212.515625 3.648438 214.109375 4.007812 215.695312 4.402344 C 217.28125 4.800781 218.855469 5.234375 220.417969 5.710938 C 221.984375 6.183594 223.535156 6.695312 225.074219 7.246094 C 226.609375 7.796875 228.136719 8.382812 229.644531 9.007812 C 231.152344 9.632812 232.648438 10.296875 234.125 10.992188 C 235.601562 11.691406 237.0625 12.425781 238.503906 13.195312 C 239.941406 13.964844 241.363281 14.769531 242.765625 15.609375 C 244.167969 16.449219 245.546875 17.324219 246.90625 18.230469 C 248.265625 19.140625 249.601562 20.078125 250.914062 21.050781 C 252.226562 22.023438 253.511719 23.03125 254.777344 24.066406 C 256.039062 25.101562 257.277344 26.167969 258.488281 27.265625 C 259.699219 28.363281 260.882812 29.488281 262.035156 30.644531 C 263.191406 31.796875 264.320312 32.980469 265.414062 34.191406 C 266.511719 35.402344 267.582031 36.636719 268.617188 37.898438 C 269.652344 39.164062 270.660156 40.449219 271.632812 41.761719 C 272.605469 43.074219 273.546875 44.410156 274.453125 45.765625 C 275.363281 47.125 276.234375 48.503906 277.074219 49.90625 C 277.914062 51.304688 278.722656 52.726562 279.492188 54.167969 C 280.261719 55.609375 280.996094 57.066406 281.695312 58.542969 C 282.394531 60.019531 283.054688 61.511719 283.679688 63.019531 C 284.304688 64.53125 284.894531 66.054688 285.445312 67.589844 C 285.996094 69.128906 286.507812 70.679688 286.980469 72.242188 C 287.457031 73.804688 287.890625 75.378906 288.289062 76.964844 C 288.6875 78.546875 289.042969 80.140625 289.363281 81.742188 C 289.679688 83.34375 289.960938 84.953125 290.199219 86.570312 C 290.441406 88.183594 290.640625 89.804688 290.800781 91.429688 C 290.960938 93.054688 291.082031 94.683594 291.160156 96.316406 C 291.242188 97.949219 291.28125 99.578125 291.28125 101.214844 Z M 291.28125 101.214844 " fill-opacity="1" fill-rule="nonzero"/><path fill="#000000" d="M 57.25 381.300781 L 325.621094 381.300781 C 326.59375 381.289062 327.566406 381.25 328.539062 381.179688 C 329.507812 381.109375 330.476562 381.011719 331.441406 380.886719 C 332.40625 380.757812 333.367188 380.601562 334.324219 380.417969 C 335.28125 380.234375 336.230469 380.019531 337.171875 379.777344 C 338.117188 379.539062 339.050781 379.269531 339.976562 378.96875 C 340.90625 378.671875 341.820312 378.347656 342.730469 377.996094 C 343.636719 377.644531 344.53125 377.265625 345.417969 376.859375 C 346.300781 376.453125 347.175781 376.019531 348.03125 375.5625 C 348.890625 375.101562 349.734375 374.617188 350.566406 374.109375 C 351.394531 373.601562 352.210938 373.066406 353.007812 372.511719 C 353.804688 371.953125 354.585938 371.371094 355.347656 370.765625 C 356.109375 370.164062 356.855469 369.535156 357.582031 368.886719 C 358.304688 368.238281 359.011719 367.566406 359.695312 366.875 C 360.382812 366.183594 361.046875 365.472656 361.6875 364.742188 C 362.332031 364.011719 362.953125 363.261719 363.550781 362.492188 C 364.148438 361.726562 364.722656 360.941406 365.269531 360.136719 C 365.820312 359.335938 366.347656 358.515625 366.847656 357.683594 C 367.351562 356.847656 367.828125 356 368.277344 355.136719 C 368.726562 354.273438 369.152344 353.398438 369.550781 352.511719 C 369.949219 351.625 370.320312 350.726562 370.664062 349.816406 C 371.007812 348.90625 371.324219 347.984375 371.613281 347.054688 C 371.902344 346.125 372.164062 345.1875 372.398438 344.246094 C 372.628906 343.300781 372.835938 342.347656 373.011719 341.390625 C 373.1875 340.433594 373.335938 339.472656 373.453125 338.507812 C 373.570312 337.539062 373.660156 336.574219 373.71875 335.601562 C 373.78125 334.628906 373.8125 333.65625 373.8125 332.683594 C 373.816406 331.710938 373.789062 330.738281 373.730469 329.769531 C 373.675781 328.796875 373.589844 327.828125 373.476562 326.859375 C 373.359375 325.894531 373.21875 324.933594 373.046875 323.972656 C 372.875 323.015625 372.671875 322.066406 372.441406 321.121094 C 372.214844 320.171875 371.957031 319.234375 371.671875 318.304688 C 371.386719 317.375 371.074219 316.453125 370.730469 315.542969 C 369.347656 312.046875 367.835938 308.605469 366.195312 305.222656 C 364.554688 301.839844 362.789062 298.523438 360.902344 295.269531 C 359.011719 292.019531 357.003906 288.84375 354.875 285.742188 C 352.75 282.640625 350.507812 279.625 348.15625 276.691406 C 345.800781 273.757812 343.339844 270.917969 340.773438 268.167969 C 338.207031 265.421875 335.542969 262.773438 332.777344 260.222656 C 330.011719 257.671875 327.15625 255.230469 324.210938 252.894531 C 321.261719 250.5625 318.230469 248.339844 315.117188 246.230469 C 312 244.121094 308.8125 242.132812 305.546875 240.265625 C 302.285156 238.394531 298.957031 236.648438 295.5625 235.027344 C 292.167969 233.410156 288.71875 231.917969 285.210938 230.554688 C 281.707031 229.195312 278.152344 227.964844 274.554688 226.867188 C 270.957031 225.773438 267.324219 224.8125 263.652344 223.988281 C 259.984375 223.164062 256.285156 222.480469 252.566406 221.933594 C 248.84375 221.386719 245.109375 220.976562 241.355469 220.710938 C 237.601562 220.441406 233.847656 220.316406 230.085938 220.332031 L 152.785156 220.332031 C 149.027344 220.328125 145.273438 220.46875 141.523438 220.746094 C 137.777344 221.027344 134.042969 221.445312 130.328125 222 C 126.609375 222.558594 122.917969 223.25 119.253906 224.082031 C 115.585938 224.914062 111.957031 225.878906 108.363281 226.980469 C 104.769531 228.082031 101.222656 229.316406 97.71875 230.679688 C 94.21875 232.046875 90.773438 233.539062 87.382812 235.164062 C 83.992188 236.785156 80.667969 238.53125 77.40625 240.402344 C 74.144531 242.269531 70.960938 244.257812 67.847656 246.363281 C 64.734375 248.472656 61.707031 250.691406 58.757812 253.023438 C 55.8125 255.355469 52.957031 257.792969 50.191406 260.339844 C 47.425781 262.882812 44.757812 265.527344 42.191406 268.273438 C 39.625 271.015625 37.160156 273.851562 34.804688 276.777344 C 32.445312 279.703125 30.203125 282.714844 28.070312 285.808594 C 25.9375 288.902344 23.921875 292.070312 22.027344 295.3125 C 20.128906 298.558594 18.355469 301.867188 16.707031 305.242188 C 15.054688 308.621094 13.535156 312.050781 12.140625 315.539062 C 11.800781 316.453125 11.484375 317.375 11.199219 318.304688 C 10.914062 319.234375 10.65625 320.171875 10.425781 321.117188 C 10.199219 322.0625 9.996094 323.015625 9.824219 323.972656 C 9.652344 324.929688 9.507812 325.894531 9.394531 326.859375 C 9.28125 327.828125 9.195312 328.796875 9.136719 329.765625 C 9.082031 330.738281 9.054688 331.710938 9.054688 332.683594 C 9.058594 333.65625 9.089844 334.628906 9.148438 335.601562 C 9.207031 336.570312 9.296875 337.539062 9.414062 338.507812 C 9.535156 339.472656 9.679688 340.433594 9.855469 341.390625 C 10.03125 342.347656 10.238281 343.300781 10.46875 344.246094 C 10.703125 345.191406 10.964844 346.125 11.253906 347.054688 C 11.542969 347.984375 11.859375 348.90625 12.203125 349.816406 C 12.546875 350.726562 12.917969 351.625 13.316406 352.511719 C 13.714844 353.402344 14.136719 354.277344 14.589844 355.140625 C 15.039062 356.003906 15.515625 356.851562 16.015625 357.683594 C 16.519531 358.519531 17.042969 359.335938 17.59375 360.140625 C 18.144531 360.941406 18.71875 361.726562 19.316406 362.496094 C 19.914062 363.265625 20.535156 364.015625 21.179688 364.746094 C 21.820312 365.476562 22.484375 366.1875 23.171875 366.878906 C 23.855469 367.570312 24.5625 368.242188 25.285156 368.890625 C 26.011719 369.539062 26.757812 370.164062 27.519531 370.769531 C 28.28125 371.375 29.0625 371.957031 29.859375 372.511719 C 30.660156 373.070312 31.472656 373.605469 32.300781 374.113281 C 33.132812 374.621094 33.976562 375.105469 34.835938 375.5625 C 35.695312 376.023438 36.566406 376.453125 37.453125 376.859375 C 38.335938 377.265625 39.230469 377.644531 40.140625 377.996094 C 41.046875 378.351562 41.964844 378.675781 42.890625 378.972656 C 43.820312 379.269531 44.753906 379.539062 45.695312 379.78125 C 46.640625 380.023438 47.589844 380.234375 48.546875 380.417969 C 49.5 380.605469 50.460938 380.761719 51.429688 380.886719 C 52.394531 381.015625 53.363281 381.113281 54.332031 381.179688 C 55.304688 381.25 56.277344 381.289062 57.25 381.300781 Z M 57.25 381.300781 " fill-opacity="1" fill-rule="nonzero"/></svg>