<svg xmlns="http://www.w3.org/2000/svg" xmlns:xlink="http://www.w3.org/1999/xlink" width="512" zoomAndPan="magnify" viewBox="0 0 384 383.999986" height="512" preserveAspectRatio="xMidYMid meet" version="1.0"><defs><clipPath id="2f73d70862"><path d="M 13 0.75 L 369 0.75 L 369 97 L 13 97 Z M 13 0.75 " clip-rule="nonzero"/></clipPath><clipPath id="875aeb8328"><path d="M 40 123 L 342 123 L 342 383.25 L 40 383.25 Z M 40 123 " clip-rule="nonzero"/></clipPath></defs><g clip-path="url(#2f73d70862)"><path fill="#000000" d="M 163.839844 0.75 C 133.800781 0.75 109.167969 25.367188 109.167969 55.394531 L 109.167969 69.054688 L 27.164062 69.054688 C 19.621094 69.054688 13.5 75.171875 13.5 82.714844 C 13.5 90.257812 19.621094 96.375 27.164062 96.375 L 355.179688 96.375 C 362.726562 96.375 368.847656 90.257812 368.847656 82.714844 C 368.847656 75.171875 362.726562 69.054688 355.179688 69.054688 L 273.175781 69.054688 L 273.175781 55.394531 C 273.175781 25.367188 248.546875 0.75 218.507812 0.75 Z M 163.839844 28.070312 L 218.507812 28.070312 C 233.882812 28.070312 245.84375 40.023438 245.84375 55.394531 L 245.84375 69.054688 L 136.503906 69.054688 L 136.503906 55.394531 C 136.503906 40.023438 148.464844 28.070312 163.839844 28.070312 Z M 163.839844 28.070312 " fill-opacity="1" fill-rule="nonzero"/></g><g clip-path="url(#875aeb8328)"><path fill="#000000" d="M 54.5 123.695312 C 46.953125 123.695312 40.832031 129.816406 40.832031 137.355469 L 40.832031 301.285156 C 40.832031 346.464844 77.636719 383.25 122.835938 383.25 L 259.507812 383.25 C 304.710938 383.25 341.511719 346.464844 341.511719 301.285156 L 341.511719 137.355469 C 341.511719 129.816406 335.390625 123.695312 327.847656 123.695312 C 320.300781 123.695312 314.179688 129.816406 314.179688 137.355469 L 314.179688 301.285156 C 314.179688 331.808594 290.046875 355.929688 259.507812 355.929688 L 122.835938 355.929688 C 92.296875 355.929688 68.167969 331.808594 68.167969 301.285156 L 68.167969 137.355469 C 68.167969 129.816406 62.046875 123.695312 54.5 123.695312 Z M 54.5 123.695312 " fill-opacity="1" fill-rule="nonzero"/></g><path fill="#000000" d="M 150.171875 151.019531 C 142.625 151.019531 136.503906 157.136719 136.503906 164.679688 L 136.503906 287.625 C 136.503906 295.167969 142.625 301.285156 150.171875 301.285156 C 157.714844 301.285156 163.839844 295.167969 163.839844 287.625 L 163.839844 164.679688 C 163.839844 157.136719 157.714844 151.019531 150.171875 151.019531 Z M 150.171875 151.019531 " fill-opacity="1" fill-rule="nonzero"/><path fill="#000000" d="M 232.175781 151.019531 C 224.628906 151.019531 218.507812 157.136719 218.507812 164.679688 L 218.507812 287.625 C 218.507812 295.167969 224.628906 301.285156 232.175781 301.285156 C 239.71875 301.285156 245.84375 295.167969 245.84375 287.625 L 245.84375 164.679688 C 245.84375 157.136719 239.71875 151.019531 232.175781 151.019531 Z M 232.175781 151.019531 " fill-opacity="1" fill-rule="nonzero"/></svg>