<svg xmlns="http://www.w3.org/2000/svg" xmlns:xlink="http://www.w3.org/1999/xlink" width="512" zoomAndPan="magnify" viewBox="0 0 384 383.999986" height="512" preserveAspectRatio="xMidYMid meet" version="1.0"><defs><clipPath id="38ad566ea8"><path d="M 2 41 L 383.25 41 L 383.25 343.164062 L 2 343.164062 Z M 2 41 " clip-rule="nonzero"/></clipPath></defs><g clip-path="url(#38ad566ea8)"><path fill="#000000" d="M 7.707031 343.0625 C 7.78125 343.070312 7.867188 343.070312 7.9375 343.070312 C 8.453125 343.070312 8.953125 342.984375 9.4375 342.808594 C 9.921875 342.636719 10.363281 342.386719 10.761719 342.0625 C 11.160156 341.738281 11.492188 341.351562 11.757812 340.914062 C 12.023438 340.472656 12.210938 340 12.3125 339.496094 C 19.863281 302.195312 47.585938 267.140625 88.355469 243.328125 C 126.152344 221.246094 171.542969 211.148438 210.605469 215.996094 L 210.605469 277.910156 C 210.605469 278.746094 210.824219 279.515625 211.257812 280.230469 C 211.691406 280.941406 212.277344 281.488281 213.019531 281.871094 C 213.757812 282.253906 214.542969 282.417969 215.375 282.359375 C 216.207031 282.304688 216.960938 282.035156 217.644531 281.554688 L 381.363281 165.441406 C 381.652344 165.234375 381.914062 165 382.148438 164.730469 C 382.382812 164.460938 382.582031 164.167969 382.746094 163.851562 C 382.910156 163.535156 383.03125 163.203125 383.117188 162.855469 C 383.199219 162.511719 383.242188 162.160156 383.242188 161.800781 C 383.242188 161.445312 383.199219 161.09375 383.117188 160.75 C 383.03125 160.402344 382.910156 160.070312 382.746094 159.753906 C 382.582031 159.4375 382.382812 159.144531 382.148438 158.875 C 381.914062 158.605469 381.652344 158.367188 381.363281 158.164062 L 217.644531 42.046875 C 216.964844 41.566406 216.207031 41.296875 215.375 41.238281 C 214.542969 41.179688 213.757812 41.34375 213.015625 41.726562 C 212.277344 42.109375 211.6875 42.660156 211.253906 43.371094 C 210.820312 44.085938 210.605469 44.859375 210.605469 45.691406 L 210.605469 97.996094 C 156.570312 105.558594 102.726562 135.203125 62.332031 179.777344 C 41.703125 202.535156 26.058594 227.542969 15.8125 254.09375 C 4.882812 282.402344 0.734375 310.988281 3.492188 339.050781 C 3.546875 339.582031 3.691406 340.085938 3.925781 340.566406 C 4.160156 341.046875 4.46875 341.46875 4.855469 341.835938 C 5.242188 342.207031 5.683594 342.496094 6.171875 342.707031 C 6.664062 342.917969 7.175781 343.035156 7.707031 343.0625 Z M 7.707031 343.0625 " fill-opacity="1" fill-rule="evenodd"/></g></svg>