<svg xmlns="http://www.w3.org/2000/svg" xmlns:xlink="http://www.w3.org/1999/xlink" width="512" zoomAndPan="magnify" viewBox="0 0 384 383.999986" height="512" preserveAspectRatio="xMidYMid meet" version="1.0"><defs><clipPath id="9c8b55367b"><path d="M 0.75 0.75 L 383 0.75 L 383 383 L 0.75 383 Z M 0.75 0.75 " clip-rule="nonzero"/></clipPath></defs><g clip-path="url(#9c8b55367b)"><path fill="#000000" d="M 191.109375 -0.140625 C 85.558594 -0.140625 -0.140625 85.558594 -0.140625 191.109375 C -0.140625 296.664062 85.558594 382.359375 191.109375 382.359375 C 296.664062 382.359375 382.359375 296.664062 382.359375 191.109375 C 382.359375 85.558594 296.664062 -0.140625 191.109375 -0.140625 Z M 191.109375 26.546875 C 281.933594 26.546875 355.675781 100.289062 355.675781 191.109375 C 355.675781 281.933594 281.933594 355.675781 191.109375 355.675781 C 100.289062 355.675781 26.546875 281.933594 26.546875 191.109375 C 26.546875 100.289062 100.289062 26.546875 191.109375 26.546875 Z M 191.109375 26.546875 " fill-opacity="1" fill-rule="evenodd"/></g><path fill="#000000" d="M 102.15625 204.453125 L 280.0625 204.453125 C 287.429688 204.453125 293.40625 198.476562 293.40625 191.109375 C 293.40625 183.746094 287.429688 177.765625 280.0625 177.765625 L 102.15625 177.765625 C 94.792969 177.765625 88.8125 183.746094 88.8125 191.109375 C 88.8125 198.476562 94.792969 204.453125 102.15625 204.453125 Z M 102.15625 204.453125 " fill-opacity="1" fill-rule="evenodd"/><path fill="#000000" d="M 204.453125 280.0625 L 204.453125 102.15625 C 204.453125 94.792969 198.476562 88.8125 191.109375 88.8125 C 183.746094 88.8125 177.765625 94.792969 177.765625 102.15625 L 177.765625 280.0625 C 177.765625 287.429688 183.746094 293.40625 191.109375 293.40625 C 198.476562 293.40625 204.453125 287.429688 204.453125 280.0625 Z M 204.453125 280.0625 " fill-opacity="1" fill-rule="evenodd"/></svg>