<svg xmlns="http://www.w3.org/2000/svg" xmlns:xlink="http://www.w3.org/1999/xlink" width="512" zoomAndPan="magnify" viewBox="0 0 384 383.999986" height="512" preserveAspectRatio="xMidYMid meet" version="1.0"><defs><clipPath id="37c21a8c47"><path d="M 0.75 28.21875 L 383.25 28.21875 L 383.25 355.96875 L 0.75 355.96875 Z M 0.75 28.21875 " clip-rule="nonzero"/></clipPath></defs><g clip-path="url(#37c21a8c47)"><path fill="#000000" d="M 255.691406 192.09375 C 255.691406 171.976562 239.402344 155.679688 219.296875 155.679688 C 199.1875 155.679688 182.902344 171.976562 182.902344 192.09375 C 182.902344 212.214844 199.1875 228.511719 219.296875 228.511719 C 239.402344 228.511719 255.691406 212.214844 255.691406 192.09375 Z M 219.296875 28.21875 C 128.855469 28.21875 55.519531 101.601562 55.519531 192.09375 L 0.929688 192.09375 L 73.71875 264.929688 L 146.507812 192.09375 L 91.914062 192.09375 C 91.914062 121.71875 148.964844 64.636719 219.296875 64.636719 C 289.628906 64.636719 346.675781 121.71875 346.675781 192.09375 C 346.675781 262.46875 289.628906 319.554688 219.296875 319.554688 C 191.726562 319.554688 166.34375 310.722656 145.414062 295.792969 L 119.664062 321.921875 C 147.324219 343.222656 181.808594 355.96875 219.296875 355.96875 C 309.738281 355.96875 383.070312 282.589844 383.070312 192.09375 C 383.070312 101.601562 309.734375 28.21875 219.296875 28.21875 Z M 219.296875 28.21875 " fill-opacity="1" fill-rule="nonzero"/></g></svg>