<svg xmlns="http://www.w3.org/2000/svg" xmlns:xlink="http://www.w3.org/1999/xlink" width="512" zoomAndPan="magnify" viewBox="0 0 384 383.999986" height="512" preserveAspectRatio="xMidYMid meet" version="1.0"><defs><clipPath id="56c88da354"><path d="M 192 0 C 85.960938 0 0 85.960938 0 192 C 0 298.039062 85.960938 384 192 384 C 298.039062 384 384 298.039062 384 192 C 384 85.960938 298.039062 0 192 0 Z M 192 0 " clip-rule="nonzero"/></clipPath><clipPath id="43f9605c9c"><path d="M 0 0 L 384 0 L 384 384 L 0 384 Z M 0 0 " clip-rule="nonzero"/></clipPath><clipPath id="5a7b93e393"><path d="M 192 0 C 85.960938 0 0 85.960938 0 192 C 0 298.039062 85.960938 384 192 384 C 298.039062 384 384 298.039062 384 192 C 384 85.960938 298.039062 0 192 0 Z M 192 0 " clip-rule="nonzero"/></clipPath><clipPath id="34cbbecf78"><rect x="0" width="384" y="0" height="384"/></clipPath><clipPath id="ac0b647ca0"><path d="M 168 34.5 L 216 34.5 L 216 152 L 168 152 Z M 168 34.5 " clip-rule="nonzero"/></clipPath><clipPath id="6635d672c4"><path d="M 34.5 168 L 152 168 L 152 216 L 34.5 216 Z M 34.5 168 " clip-rule="nonzero"/></clipPath><clipPath id="74f6818148"><path d="M 168 232 L 216 232 L 216 349.5 L 168 349.5 Z M 168 232 " clip-rule="nonzero"/></clipPath><clipPath id="8b0b23d700"><path d="M 232 168 L 349.5 168 L 349.5 216 L 232 216 Z M 232 168 " clip-rule="nonzero"/></clipPath></defs><g clip-path="url(#56c88da354)"><g><g clip-path="url(#34cbbecf78)"><g clip-path="url(#43f9605c9c)"><g clip-path="url(#5a7b93e393)"><rect x="-84.48" width="552.96" fill="#14967f" height="552.959979" y="-84.479997" fill-opacity="1"/></g></g></g></g></g><g clip-path="url(#ac0b647ca0)"><path fill="#000000" d="M 197.847656 34.5 L 168.945312 113.761719 L 191.1875 100.582031 L 187.316406 151.097656 L 215.054688 72.421875 L 195.335938 82.375 L 197.847656 34.5 " fill-opacity="1" fill-rule="nonzero"/></g><path fill="#000000" d="M 84.765625 76.496094 L 120.375 152.980469 L 126.785156 127.933594 L 159.765625 166.390625 L 123.746094 91.144531 L 116.84375 112.125 L 84.765625 76.496094 " fill-opacity="1" fill-rule="nonzero"/><path fill="#000000" d="M 84.765625 76.496094 L 120.375 152.980469 L 126.785156 127.933594 L 159.765625 166.390625 L 123.746094 91.144531 L 116.84375 112.125 L 84.765625 76.496094 " fill-opacity="1" fill-rule="nonzero"/><g clip-path="url(#6635d672c4)"><path fill="#000000" d="M 34.5 186.152344 L 113.761719 215.054688 L 100.582031 192.8125 L 151.097656 196.683594 L 72.417969 168.945312 L 82.375 188.664062 L 34.5 186.152344 " fill-opacity="1" fill-rule="nonzero"/><path fill="#000000" d="M 34.5 186.152344 L 113.761719 215.054688 L 100.582031 192.8125 L 151.097656 196.683594 L 72.417969 168.945312 L 82.375 188.664062 L 34.5 186.152344 " fill-opacity="1" fill-rule="nonzero"/></g><path fill="#000000" d="M 76.496094 299.234375 L 152.980469 263.625 L 127.933594 257.214844 L 166.390625 224.234375 L 91.144531 260.253906 L 112.125 267.15625 L 76.496094 299.234375 " fill-opacity="1" fill-rule="nonzero"/><path fill="#000000" d="M 76.496094 299.234375 L 152.980469 263.625 L 127.933594 257.214844 L 166.390625 224.234375 L 91.144531 260.253906 L 112.125 267.15625 L 76.496094 299.234375 " fill-opacity="1" fill-rule="nonzero"/><g clip-path="url(#74f6818148)"><path fill="#000000" d="M 186.152344 349.5 L 215.054688 270.238281 L 192.8125 283.417969 L 196.683594 232.902344 L 168.945312 311.578125 L 188.664062 301.625 L 186.152344 349.5 " fill-opacity="1" fill-rule="nonzero"/><path fill="#000000" d="M 186.152344 349.5 L 215.054688 270.238281 L 192.8125 283.417969 L 196.683594 232.902344 L 168.945312 311.578125 L 188.664062 301.625 L 186.152344 349.5 " fill-opacity="1" fill-rule="nonzero"/></g><path fill="#000000" d="M 299.234375 307.503906 L 263.625 231.019531 L 257.214844 256.066406 L 224.234375 217.609375 L 260.253906 292.855469 L 267.15625 271.875 L 299.234375 307.503906 " fill-opacity="1" fill-rule="nonzero"/><path fill="#000000" d="M 299.234375 307.503906 L 263.625 231.019531 L 257.214844 256.066406 L 224.234375 217.609375 L 260.253906 292.855469 L 267.15625 271.875 L 299.234375 307.503906 " fill-opacity="1" fill-rule="nonzero"/><g clip-path="url(#8b0b23d700)"><path fill="#000000" d="M 349.5 197.847656 L 270.238281 168.945312 L 283.417969 191.1875 L 232.902344 187.316406 L 311.578125 215.054688 L 301.625 195.335938 L 349.5 197.847656 " fill-opacity="1" fill-rule="nonzero"/><path fill="#000000" d="M 349.5 197.847656 L 270.238281 168.945312 L 283.417969 191.1875 L 232.902344 187.316406 L 311.578125 215.054688 L 301.625 195.335938 L 349.5 197.847656 " fill-opacity="1" fill-rule="nonzero"/></g><path fill="#000000" d="M 307.503906 84.765625 L 231.019531 120.375 L 256.066406 126.785156 L 217.609375 159.765625 L 292.855469 123.746094 L 271.875 116.84375 L 307.503906 84.765625 " fill-opacity="1" fill-rule="nonzero"/></svg>