<svg xmlns="http://www.w3.org/2000/svg" xmlns:xlink="http://www.w3.org/1999/xlink" width="512" zoomAndPan="magnify" viewBox="0 0 384 383.999986" height="512" preserveAspectRatio="xMidYMid meet" version="1.0"><defs><clipPath id="38b585a92d"><path d="M 192 0 C 85.960938 0 0 85.960938 0 192 C 0 298.039062 85.960938 384 192 384 C 298.039062 384 384 298.039062 384 192 C 384 85.960938 298.039062 0 192 0 Z M 192 0 " clip-rule="nonzero"/></clipPath><clipPath id="66738a5b4a"><path d="M 0 0 L 384 0 L 384 384 L 0 384 Z M 0 0 " clip-rule="nonzero"/></clipPath><clipPath id="74121b13ca"><path d="M 192 0 C 85.960938 0 0 85.960938 0 192 C 0 298.039062 85.960938 384 192 384 C 298.039062 384 384 298.039062 384 192 C 384 85.960938 298.039062 0 192 0 Z M 192 0 " clip-rule="nonzero"/></clipPath><clipPath id="62afba919a"><rect x="0" width="384" y="0" height="384"/></clipPath><clipPath id="5222760ab1"><path d="M 42 59.976562 L 341 59.976562 L 341 323.976562 L 42 323.976562 Z M 42 59.976562 " clip-rule="nonzero"/></clipPath></defs><g clip-path="url(#38b585a92d)"><g><g clip-path="url(#62afba919a)"><g clip-path="url(#66738a5b4a)"><g clip-path="url(#74121b13ca)"><rect x="-84.48" width="552.96" fill="#14967f" height="552.959979" y="-84.479997" fill-opacity="1"/></g></g></g></g></g><g clip-path="url(#5222760ab1)"><path fill="#000000" d="M 312.308594 210.652344 C 312.660156 210.273438 313.011719 209.886719 313.359375 209.503906 C 313.703125 209.121094 314.042969 208.738281 314.378906 208.355469 C 314.535156 208.175781 314.6875 208 314.84375 207.820312 C 316.070312 206.40625 317.257812 204.984375 318.398438 203.539062 C 318.398438 203.539062 318.398438 203.539062 318.402344 203.535156 C 334.738281 182.863281 341.980469 159.152344 339.9375 132.84375 C 337.320312 99.25 306.648438 66.347656 272.957031 61 C 268.636719 60.316406 264.304688 59.96875 260.085938 59.96875 C 244.671875 59.96875 230.394531 64.429688 217.652344 73.226562 C 207.296875 80.371094 198.332031 90.269531 191.554688 101.992188 C 184.773438 90.269531 175.808594 80.371094 165.460938 73.226562 C 152.714844 64.429688 138.4375 59.96875 123.023438 59.96875 C 118.804688 59.96875 114.472656 60.316406 110.152344 61 C 76.460938 66.347656 45.789062 99.25 43.175781 132.84375 C 42.015625 147.800781 43.851562 161.914062 48.652344 175.109375 L 64.429688 175.109375 C 58.832031 162.382812 56.574219 148.636719 57.714844 133.972656 C 59.804688 107.066406 85.378906 79.695312 112.441406 75.398438 C 116.007812 74.835938 119.570312 74.546875 123.027344 74.546875 C 146.917969 74.546875 167.847656 88.214844 180.457031 112.042969 C 181.421875 113.863281 182.433594 115.542969 183.417969 117.167969 C 183.824219 117.839844 184.226562 118.503906 184.609375 119.160156 C 186.625 123.242188 190.136719 123.683594 191.558594 123.683594 C 192.972656 123.683594 196.46875 123.242188 198.507812 119.160156 C 198.890625 118.503906 199.292969 117.839844 199.699219 117.167969 C 200.679688 115.542969 201.695312 113.867188 202.65625 112.042969 C 215.265625 88.214844 236.199219 74.550781 260.085938 74.550781 C 263.542969 74.550781 267.105469 74.835938 270.671875 75.402344 C 297.734375 79.695312 323.308594 107.066406 325.402344 133.976562 C 327.453125 160.320312 318.550781 183.707031 298.953125 203.539062 C 284.652344 203.539062 266.371094 203.539062 252.722656 203.539062 C 244.867188 203.539062 237.015625 203.539062 229.167969 203.539062 C 226.335938 203.539062 224.136719 205.425781 223.269531 208.027344 C 221.628906 212.949219 219.988281 217.871094 218.347656 222.792969 C 217.855469 219.78125 217.363281 216.765625 216.871094 213.75 C 213.75 194.613281 210.632812 175.476562 207.507812 156.34375 C 206.296875 148.910156 205.085938 141.472656 203.871094 134.039062 C 202.914062 128.164062 193.0625 128.1875 192.074219 134.039062 C 190.230469 144.972656 188.386719 155.90625 186.546875 166.839844 C 183.859375 182.796875 181.171875 198.753906 178.480469 214.710938 C 177.726562 210.964844 176.96875 207.222656 176.214844 203.480469 C 174.628906 195.621094 173.042969 187.761719 171.453125 179.902344 C 170.382812 174.589844 162.792969 174.074219 160.277344 178.4375 C 155.457031 186.804688 150.632812 195.175781 145.8125 203.539062 C 134.253906 203.539062 97.464844 203.539062 84.164062 203.539062 C 83.6875 203.539062 83.242188 203.539062 82.828125 203.539062 C 76.433594 203.539062 70.261719 203.539062 64.710938 203.539062 C 68.007812 207.710938 71.667969 211.761719 75.707031 215.683594 C 89.316406 228.902344 104.386719 240.808594 118.957031 252.324219 C 121.945312 254.6875 124.933594 257.050781 127.90625 259.417969 C 130.421875 261.421875 132.980469 263.4375 135.460938 265.382812 C 155.523438 281.136719 174.472656 296.015625 184.289062 318.566406 C 186.246094 323.570312 190.359375 323.960938 191.589844 323.960938 C 192.859375 323.960938 197.042969 323.554688 198.875 318.453125 C 208.703125 295.96875 227.625 281.109375 247.652344 265.382812 C 250.132812 263.4375 252.695312 261.421875 255.207031 259.417969 C 258.175781 257.050781 261.160156 254.695312 264.140625 252.335938 C 267.546875 249.648438 270.972656 246.9375 274.402344 244.191406 L 250.945312 244.191406 C 249.335938 245.464844 247.722656 246.742188 246.117188 248.023438 C 243.640625 249.996094 241.105469 251.988281 238.644531 253.917969 C 221.316406 267.523438 203.496094 281.515625 191.554688 301.042969 C 179.613281 281.515625 161.789062 267.523438 144.460938 253.917969 C 142.007812 251.988281 139.464844 249.996094 136.992188 248.023438 C 134.003906 245.636719 131 243.261719 127.996094 240.890625 C 117.75 232.792969 107.257812 224.496094 97.3125 215.765625 C 114.769531 215.765625 139.558594 215.765625 149.34375 215.765625 C 151.488281 215.765625 153.550781 214.601562 154.625 212.738281 C 157.339844 208.027344 160.054688 203.308594 162.773438 198.597656 C 164.628906 207.808594 166.488281 217.015625 168.347656 226.226562 C 169.933594 234.085938 171.523438 241.941406 173.109375 249.804688 C 173.640625 252.445312 176.429688 254.292969 179.007812 254.292969 C 181.515625 254.292969 184.457031 252.449219 184.902344 249.804688 C 186.746094 238.871094 188.589844 227.933594 190.429688 217 C 192.910156 202.285156 195.390625 187.574219 197.871094 172.859375 C 200.839844 191.074219 203.808594 209.285156 206.78125 227.496094 C 207.992188 234.933594 209.207031 242.367188 210.417969 249.804688 C 210.851562 252.449219 213.816406 254.292969 216.316406 254.292969 C 219.144531 254.292969 221.347656 252.40625 222.210938 249.804688 C 225.996094 238.457031 229.777344 227.113281 233.558594 215.769531 C 246.765625 215.769531 259.976562 215.769531 273.183594 215.769531 C 276.648438 215.769531 281.160156 215.769531 285.789062 215.769531 C 291.648438 215.769531 297.707031 215.769531 302.09375 215.769531 C 303.796875 215.769531 305.539062 215.769531 307.3125 215.769531 C 307.34375 215.742188 307.371094 215.714844 307.398438 215.683594 C 308.054688 215.046875 308.695312 214.40625 309.332031 213.761719 C 309.53125 213.566406 309.726562 213.363281 309.921875 213.164062 C 310.394531 212.675781 310.863281 212.1875 311.328125 211.695312 C 311.660156 211.347656 311.980469 211.003906 312.308594 210.652344 Z M 312.308594 210.652344 " fill-opacity="1" fill-rule="nonzero"/></g></svg>