<svg xmlns="http://www.w3.org/2000/svg" xmlns:xlink="http://www.w3.org/1999/xlink" width="512" zoomAndPan="magnify" viewBox="0 0 384 383.999986" height="512" preserveAspectRatio="xMidYMid meet" version="1.0"><defs><clipPath id="ebc067a5a8"><path d="M 192 0 C 85.960938 0 0 85.960938 0 192 C 0 298.039062 85.960938 384 192 384 C 298.039062 384 384 298.039062 384 192 C 384 85.960938 298.039062 0 192 0 Z M 192 0 " clip-rule="nonzero"/></clipPath><clipPath id="93c755ed9b"><path d="M 0 0 L 384 0 L 384 384 L 0 384 Z M 0 0 " clip-rule="nonzero"/></clipPath><clipPath id="70cc560e5f"><path d="M 192 0 C 85.960938 0 0 85.960938 0 192 C 0 298.039062 85.960938 384 192 384 C 298.039062 384 384 298.039062 384 192 C 384 85.960938 298.039062 0 192 0 Z M 192 0 " clip-rule="nonzero"/></clipPath><clipPath id="7acf2f15fd"><rect x="0" width="384" y="0" height="384"/></clipPath></defs><g clip-path="url(#ebc067a5a8)"><g><g clip-path="url(#7acf2f15fd)"><g clip-path="url(#93c755ed9b)"><g clip-path="url(#70cc560e5f)"><rect x="-84.48" width="552.96" fill="#14967f" height="552.959979" y="-84.479997" fill-opacity="1"/></g></g></g></g></g><path fill="#000000" d="M 190.515625 340.75 C 180.078125 340.75 169.640625 339.589844 159.386719 337.167969 C 96.164062 322.226562 46.707031 261.34375 44.351562 195.546875 C 42.027344 130.730469 84.941406 66.640625 146.394531 43.15625 C 148.90625 42.195312 151.722656 43.453125 152.683594 45.96875 C 153.644531 48.484375 152.386719 51.300781 149.871094 52.261719 C 92.195312 74.304688 51.910156 134.417969 54.089844 195.195312 C 56.296875 256.757812 102.527344 313.714844 161.628906 327.679688 C 221.492188 341.828125 288.574219 309.867188 314.347656 254.921875 C 329.753906 222.078125 332.003906 180.269531 320.6875 137.199219 C 314.273438 112.800781 300.792969 81.253906 272.972656 69.496094 C 250.609375 60.042969 225.484375 66.25 208.347656 73.121094 C 171.195312 88.015625 142.125 116.773438 130.578125 150.050781 C 117.847656 186.746094 127.675781 228.6875 154.476562 252.046875 C 182.867188 276.792969 229.273438 276.21875 253.785156 250.816406 C 274.179688 229.683594 276.414062 198.472656 275.929688 181.75 C 275.308594 160.355469 269.644531 144.863281 259.097656 135.707031 C 241.910156 120.789062 214.148438 125.859375 197.238281 139.382812 C 180.117188 153.074219 171.054688 174.433594 174.160156 193.792969 C 177.453125 214.34375 195.765625 231.121094 214.980469 231.1875 C 224.824219 231.21875 234.832031 226.25 241.78125 217.890625 C 248.011719 210.390625 250.683594 201.316406 249.101562 192.988281 C 247.691406 185.542969 241.960938 178.433594 234.507812 174.878906 C 231.640625 173.511719 226.503906 171.75 221.042969 173.175781 L 227.589844 196.8125 C 228.308594 199.40625 226.789062 202.089844 224.195312 202.808594 C 221.601562 203.527344 218.917969 202.007812 218.199219 199.414062 L 210.488281 171.582031 C 209.878906 169.390625 210.871094 167.066406 212.875 165.988281 C 220.53125 161.871094 229.941406 161.90625 238.699219 166.082031 C 249.023438 171.003906 256.675781 180.617188 258.679688 191.171875 C 260.800781 202.367188 257.375 214.375 249.273438 224.121094 C 240.488281 234.691406 227.644531 240.996094 214.949219 240.929688 C 191.167969 240.847656 168.554688 220.394531 164.535156 195.335938 C 160.886719 172.566406 171.335938 147.617188 191.152344 131.773438 C 211.179688 115.757812 244.460938 110.097656 265.484375 128.347656 C 278.175781 139.363281 284.96875 157.234375 285.671875 181.464844 C 286.582031 212.984375 277.75 240.019531 260.796875 257.585938 C 232.859375 286.535156 180.1875 287.382812 148.074219 259.394531 C 118.351562 233.492188 107.371094 187.214844 121.371094 146.859375 C 133.828125 110.949219 164.988281 80.003906 204.71875 64.074219 C 223.558594 56.523438 251.351562 49.777344 276.765625 60.519531 C 308.234375 73.820312 323.144531 108.210938 330.113281 134.722656 C 342.011719 179.992188 339.546875 224.152344 323.171875 259.058594 C 299.929688 308.605469 245.414062 340.746094 190.515625 340.75 Z M 190.515625 340.75 " fill-opacity="1" fill-rule="nonzero"/></svg>