<svg xmlns="http://www.w3.org/2000/svg" xmlns:xlink="http://www.w3.org/1999/xlink" width="512" zoomAndPan="magnify" viewBox="0 0 384 383.999986" height="512" preserveAspectRatio="xMidYMid meet" version="1.0"><defs><clipPath id="6f7a619d95"><path d="M 192 0 C 85.960938 0 0 85.960938 0 192 C 0 298.039062 85.960938 384 192 384 C 298.039062 384 384 298.039062 384 192 C 384 85.960938 298.039062 0 192 0 Z M 192 0 " clip-rule="nonzero"/></clipPath><clipPath id="b8b484b8f4"><path d="M 0 0 L 384 0 L 384 384 L 0 384 Z M 0 0 " clip-rule="nonzero"/></clipPath><clipPath id="bc632b8f97"><path d="M 192 0 C 85.960938 0 0 85.960938 0 192 C 0 298.039062 85.960938 384 192 384 C 298.039062 384 384 298.039062 384 192 C 384 85.960938 298.039062 0 192 0 Z M 192 0 " clip-rule="nonzero"/></clipPath><clipPath id="9c93c790c9"><rect x="0" width="384" y="0" height="384"/></clipPath></defs><g clip-path="url(#6f7a619d95)"><g><g clip-path="url(#9c93c790c9)"><g clip-path="url(#b8b484b8f4)"><g clip-path="url(#bc632b8f97)"><rect x="-84.48" width="552.96" fill="#14967f" height="552.959979" y="-84.479997" fill-opacity="1"/></g></g></g></g></g><path fill="#000000" d="M 311.621094 72.378906 C 310.71875 71.480469 309.792969 70.601562 308.851562 69.746094 C 307.90625 68.886719 306.941406 68.054688 305.953125 67.246094 C 304.96875 66.4375 303.960938 65.65625 302.9375 64.894531 C 301.914062 64.136719 300.871094 63.402344 299.8125 62.695312 C 298.75 61.988281 297.675781 61.304688 296.582031 60.652344 C 295.488281 59.996094 294.378906 59.367188 293.253906 58.765625 C 292.128906 58.167969 290.988281 57.59375 289.835938 57.046875 C 288.683594 56.503906 287.519531 55.988281 286.339844 55.5 C 285.164062 55.011719 283.972656 54.554688 282.773438 54.125 C 281.574219 53.695312 280.363281 53.296875 279.144531 52.925781 C 277.921875 52.554688 276.695312 52.214844 275.457031 51.90625 C 274.222656 51.597656 272.976562 51.316406 271.726562 51.070312 C 270.476562 50.820312 269.21875 50.601562 267.960938 50.414062 C 266.699219 50.230469 265.433594 50.074219 264.164062 49.949219 C 262.894531 49.824219 261.625 49.730469 260.351562 49.667969 C 259.078125 49.605469 257.804688 49.574219 256.527344 49.574219 C 255.253906 49.574219 253.980469 49.605469 252.707031 49.667969 C 251.433594 49.730469 250.160156 49.824219 248.894531 49.949219 C 247.625 50.074219 246.359375 50.230469 245.097656 50.414062 C 243.835938 50.601562 242.582031 50.820312 241.332031 51.070312 C 240.078125 51.316406 238.835938 51.597656 237.597656 51.90625 C 236.363281 52.214844 235.132812 52.554688 233.914062 52.925781 C 232.695312 53.296875 231.484375 53.695312 230.28125 54.125 C 229.082031 54.554688 227.894531 55.011719 226.714844 55.5 C 225.539062 55.988281 224.371094 56.503906 223.21875 57.046875 C 222.066406 57.59375 220.929688 58.167969 219.804688 58.765625 C 218.679688 59.367188 217.570312 59.996094 216.476562 60.652344 C 215.382812 61.304688 214.304688 61.988281 213.246094 62.695312 C 212.183594 63.402344 211.144531 64.136719 210.117188 64.894531 C 209.09375 65.65625 208.089844 66.4375 207.101562 67.246094 C 206.117188 68.054688 205.152344 68.886719 204.207031 69.746094 C 203.261719 70.601562 202.339844 71.480469 201.4375 72.378906 L 72.378906 201.417969 C 71.476562 202.320312 70.597656 203.242188 69.742188 204.1875 C 68.886719 205.132812 68.054688 206.097656 67.246094 207.082031 C 66.433594 208.070312 65.652344 209.074219 64.890625 210.097656 C 64.132812 211.125 63.398438 212.164062 62.6875 213.226562 C 61.980469 214.285156 61.296875 215.363281 60.640625 216.457031 C 59.988281 217.550781 59.359375 218.660156 58.757812 219.785156 C 58.15625 220.910156 57.582031 222.050781 57.039062 223.203125 C 56.492188 224.355469 55.976562 225.519531 55.488281 226.699219 C 55 227.875 54.539062 229.066406 54.109375 230.265625 C 53.679688 231.46875 53.28125 232.679688 52.910156 233.898438 C 52.542969 235.117188 52.203125 236.347656 51.890625 237.585938 C 51.582031 238.820312 51.300781 240.066406 51.054688 241.316406 C 50.804688 242.566406 50.585938 243.824219 50.398438 245.085938 C 50.210938 246.347656 50.054688 247.613281 49.929688 248.882812 C 49.804688 250.148438 49.710938 251.421875 49.648438 252.695312 C 49.585938 253.96875 49.554688 255.242188 49.554688 256.519531 C 49.554688 257.792969 49.585938 259.070312 49.648438 260.34375 C 49.710938 261.617188 49.804688 262.886719 49.929688 264.15625 C 50.054688 265.425781 50.210938 266.691406 50.398438 267.953125 C 50.585938 269.214844 50.804688 270.46875 51.054688 271.722656 C 51.300781 272.972656 51.582031 274.214844 51.890625 275.453125 C 52.203125 276.691406 52.542969 277.917969 52.910156 279.140625 C 53.28125 280.359375 53.679688 281.570312 54.109375 282.769531 C 54.539062 283.972656 55 285.160156 55.488281 286.339844 C 55.976562 287.519531 56.492188 288.683594 57.039062 289.835938 C 57.582031 290.988281 58.15625 292.128906 58.757812 293.253906 C 59.359375 294.378906 59.988281 295.488281 60.640625 296.582031 C 61.296875 297.675781 61.980469 298.75 62.6875 299.8125 C 63.398438 300.871094 64.132812 301.914062 64.890625 302.9375 C 65.652344 303.964844 66.433594 304.96875 67.246094 305.953125 C 68.054688 306.941406 68.886719 307.90625 69.742188 308.851562 C 70.597656 309.796875 71.476562 310.71875 72.378906 311.621094 C 73.28125 312.523438 74.203125 313.402344 75.148438 314.257812 C 76.09375 315.113281 77.058594 315.945312 78.046875 316.753906 C 79.03125 317.566406 80.035156 318.347656 81.0625 319.109375 C 82.085938 319.867188 83.128906 320.601562 84.1875 321.3125 C 85.25 322.019531 86.324219 322.703125 87.417969 323.355469 C 88.511719 324.011719 89.621094 324.640625 90.746094 325.242188 C 91.871094 325.84375 93.011719 326.417969 94.164062 326.960938 C 95.316406 327.507812 96.480469 328.023438 97.660156 328.511719 C 98.839844 329 100.027344 329.460938 101.230469 329.890625 C 102.429688 330.316406 103.640625 330.71875 104.859375 331.089844 C 106.082031 331.457031 107.308594 331.796875 108.546875 332.109375 C 109.785156 332.417969 111.027344 332.699219 112.277344 332.945312 C 113.53125 333.195312 114.785156 333.414062 116.046875 333.601562 C 117.308594 333.789062 118.574219 333.945312 119.84375 334.070312 C 121.113281 334.195312 122.382812 334.289062 123.65625 334.351562 C 124.929688 334.414062 126.207031 334.445312 127.480469 334.445312 C 128.757812 334.445312 130.03125 334.414062 131.304688 334.351562 C 132.578125 334.289062 133.851562 334.195312 135.117188 334.070312 C 136.386719 333.945312 137.652344 333.789062 138.914062 333.601562 C 140.175781 333.414062 141.433594 333.195312 142.683594 332.945312 C 143.933594 332.699219 145.179688 332.417969 146.414062 332.109375 C 147.652344 331.796875 148.882812 331.457031 150.101562 331.089844 C 151.320312 330.71875 152.53125 330.316406 153.734375 329.890625 C 154.933594 329.460938 156.125 329 157.300781 328.511719 C 158.480469 328.023438 159.644531 327.507812 160.796875 326.960938 C 161.949219 326.417969 163.089844 325.84375 164.214844 325.242188 C 165.339844 324.640625 166.449219 324.011719 167.542969 323.355469 C 168.636719 322.703125 169.714844 322.019531 170.773438 321.3125 C 171.835938 320.601562 172.875 319.867188 173.902344 319.109375 C 174.925781 318.347656 175.929688 317.566406 176.917969 316.753906 C 177.902344 315.945312 178.867188 315.113281 179.8125 314.257812 C 180.757812 313.402344 181.679688 312.523438 182.582031 311.621094 L 311.621094 182.582031 C 312.523438 181.679688 313.398438 180.757812 314.257812 179.8125 C 315.113281 178.867188 315.945312 177.902344 316.753906 176.914062 C 317.5625 175.929688 318.347656 174.921875 319.105469 173.898438 C 319.863281 172.875 320.597656 171.832031 321.304688 170.773438 C 322.015625 169.710938 322.695312 168.632812 323.351562 167.539062 C 324.007812 166.445312 324.636719 165.335938 325.234375 164.210938 C 325.835938 163.085938 326.410156 161.949219 326.953125 160.796875 C 327.5 159.644531 328.015625 158.476562 328.503906 157.300781 C 328.992188 156.121094 329.449219 154.933594 329.878906 153.730469 C 330.308594 152.53125 330.707031 151.320312 331.078125 150.097656 C 331.449219 148.878906 331.789062 147.652344 332.097656 146.414062 C 332.40625 145.175781 332.6875 143.933594 332.9375 142.683594 C 333.183594 141.429688 333.402344 140.175781 333.589844 138.914062 C 333.777344 137.652344 333.933594 136.386719 334.058594 135.117188 C 334.183594 133.847656 334.277344 132.578125 334.339844 131.304688 C 334.402344 130.03125 334.433594 128.757812 334.433594 127.480469 C 334.433594 126.207031 334.402344 124.929688 334.339844 123.65625 C 334.277344 122.382812 334.183594 121.113281 334.058594 119.84375 C 333.933594 118.574219 333.777344 117.308594 333.589844 116.046875 C 333.402344 114.785156 333.183594 113.53125 332.9375 112.28125 C 332.6875 111.027344 332.40625 109.785156 332.097656 108.546875 C 331.789062 107.3125 331.449219 106.082031 331.078125 104.863281 C 330.707031 103.640625 330.308594 102.433594 329.878906 101.230469 C 329.449219 100.03125 328.992188 98.839844 328.503906 97.664062 C 328.015625 96.484375 327.5 95.320312 326.953125 94.167969 C 326.410156 93.011719 325.835938 91.875 325.234375 90.75 C 324.636719 89.625 324.007812 88.515625 323.351562 87.421875 C 322.695312 86.328125 322.015625 85.25 321.304688 84.191406 C 320.597656 83.128906 319.863281 82.085938 319.105469 81.0625 C 318.347656 80.039062 317.5625 79.03125 316.753906 78.046875 C 315.945312 77.0625 315.113281 76.09375 314.257812 75.152344 C 313.398438 74.207031 312.523438 73.28125 311.621094 72.378906 Z M 169.214844 298.148438 C 167.851562 299.511719 166.421875 300.804688 164.929688 302.03125 C 163.4375 303.253906 161.890625 304.402344 160.285156 305.472656 C 158.679688 306.542969 157.027344 307.535156 155.328125 308.445312 C 153.625 309.351562 151.882812 310.175781 150.101562 310.914062 C 148.316406 311.652344 146.503906 312.300781 144.65625 312.859375 C 142.808594 313.421875 140.941406 313.886719 139.046875 314.265625 C 137.15625 314.640625 135.25 314.921875 133.328125 315.113281 C 131.410156 315.300781 129.484375 315.394531 127.554688 315.394531 C 125.625 315.394531 123.699219 315.300781 121.78125 315.109375 C 119.859375 314.921875 117.953125 314.636719 116.0625 314.261719 C 114.167969 313.886719 112.300781 313.417969 110.453125 312.855469 C 108.609375 312.296875 106.792969 311.648438 105.011719 310.910156 C 103.230469 310.171875 101.488281 309.347656 99.785156 308.4375 C 98.082031 307.527344 96.429688 306.535156 94.828125 305.464844 C 93.222656 304.394531 91.675781 303.246094 90.183594 302.019531 C 88.691406 300.796875 87.261719 299.503906 85.898438 298.140625 C 84.535156 296.773438 83.242188 295.347656 82.015625 293.855469 C 80.792969 292.363281 79.644531 290.816406 78.570312 289.210938 C 77.5 287.609375 76.507812 285.957031 75.597656 284.253906 C 74.6875 282.550781 73.867188 280.8125 73.125 279.027344 C 72.386719 277.246094 71.738281 275.429688 71.179688 273.585938 C 70.617188 271.738281 70.148438 269.871094 69.773438 267.976562 C 69.394531 266.085938 69.113281 264.179688 68.921875 262.257812 C 68.734375 260.339844 68.636719 258.414062 68.636719 256.484375 C 68.636719 254.554688 68.730469 252.628906 68.921875 250.710938 C 69.109375 248.789062 69.390625 246.882812 69.765625 244.992188 C 70.144531 243.097656 70.609375 241.230469 71.171875 239.382812 C 71.730469 237.535156 72.378906 235.722656 73.117188 233.9375 C 73.855469 232.15625 74.675781 230.414062 75.585938 228.710938 C 76.496094 227.011719 77.484375 225.355469 78.558594 223.753906 C 79.628906 222.148438 80.777344 220.601562 82 219.109375 C 83.222656 217.617188 84.515625 216.1875 85.878906 214.824219 L 143.582031 157.042969 L 226.957031 240.417969 Z M 169.214844 298.148438 " fill-opacity="1" fill-rule="evenodd"/></svg>