<svg xmlns="http://www.w3.org/2000/svg" xmlns:xlink="http://www.w3.org/1999/xlink" width="512" zoomAndPan="magnify" viewBox="0 0 384 383.999986" height="512" preserveAspectRatio="xMidYMid meet" version="1.0"><defs><clipPath id="bf2359aa35"><path d="M 192 0 C 85.960938 0 0 85.960938 0 192 C 0 298.039062 85.960938 384 192 384 C 298.039062 384 384 298.039062 384 192 C 384 85.960938 298.039062 0 192 0 Z M 192 0 " clip-rule="nonzero"/></clipPath><clipPath id="1d567f07d7"><path d="M 0 0 L 384 0 L 384 384 L 0 384 Z M 0 0 " clip-rule="nonzero"/></clipPath><clipPath id="ffbdbbc82b"><path d="M 192 0 C 85.960938 0 0 85.960938 0 192 C 0 298.039062 85.960938 384 192 384 C 298.039062 384 384 298.039062 384 192 C 384 85.960938 298.039062 0 192 0 Z M 192 0 " clip-rule="nonzero"/></clipPath><clipPath id="8fe335a742"><rect x="0" width="384" y="0" height="384"/></clipPath></defs><g clip-path="url(#bf2359aa35)"><g><g clip-path="url(#8fe335a742)"><g clip-path="url(#1d567f07d7)"><g clip-path="url(#ffbdbbc82b)"><rect x="-84.48" width="552.96" fill="#14967f" height="552.959979" y="-84.479997" fill-opacity="1"/></g></g></g></g></g><path fill="#000000" d="M 218.273438 196.75 C 215.753906 196.75 213.667969 197.757812 212.15625 199.773438 C 210.570312 201.789062 209.78125 204.308594 209.707031 207.332031 C 209.707031 209.277344 209.996094 211.003906 210.644531 212.585938 C 211.292969 214.171875 212.300781 215.46875 213.667969 216.476562 C 214.964844 217.484375 216.476562 217.988281 218.273438 217.988281 C 220.144531 217.988281 221.800781 217.484375 223.097656 216.476562 C 224.464844 215.609375 225.472656 214.316406 225.976562 212.730469 C 226.625 211.074219 226.914062 209.277344 226.914062 207.332031 C 226.914062 204.238281 226.191406 201.789062 224.679688 199.773438 C 223.167969 197.757812 221.011719 196.75 218.273438 196.75 Z M 218.273438 196.75 " fill-opacity="1" fill-rule="evenodd"/><path fill="#000000" d="M 207.765625 145.496094 L 176.234375 145.496094 L 140.242188 109.503906 C 154.0625 95.683594 172.417969 88.054688 192 88.054688 C 211.578125 88.054688 229.9375 95.683594 243.757812 109.503906 Z M 287.09375 312 L 96.90625 312 C 83.15625 312 72 300.84375 72 287.019531 L 72 96.980469 C 72 83.15625 83.15625 72 96.980469 72 L 287.019531 72 C 300.84375 72 312 83.15625 312 96.980469 L 312 287.019531 C 312 300.84375 300.84375 312 287.09375 312 Z M 239.4375 223.890625 C 239.4375 227.34375 239.078125 230.367188 238.359375 232.886719 C 237.640625 235.695312 236.199219 238.144531 233.96875 240.230469 C 229.863281 244.332031 224.175781 246.347656 216.90625 246.347656 C 212.445312 246.347656 208.339844 245.703125 204.742188 244.40625 C 201.214844 243.183594 198.984375 240.734375 198.117188 237.207031 C 198.40625 234.183594 200.132812 232.3125 203.300781 231.59375 C 204.023438 231.734375 204.597656 231.808594 204.957031 232.023438 C 205.605469 232.167969 206.253906 232.457031 206.902344 232.742188 C 207.1875 232.886719 207.550781 233.03125 208.054688 233.246094 C 208.558594 233.464844 208.988281 233.679688 209.421875 233.894531 C 211.363281 234.902344 213.738281 235.335938 216.617188 235.335938 C 219.640625 235.335938 222.160156 234.398438 224.105469 232.457031 C 225.976562 230.65625 226.914062 228.136719 226.914062 225.042969 L 226.914062 224.175781 L 226.769531 224.175781 C 224.464844 227.488281 220.792969 229.074219 215.683594 229.074219 C 212.082031 229.074219 208.988281 228.28125 206.253906 226.554688 C 203.519531 224.898438 201.359375 222.449219 199.847656 219.210938 C 198.335938 215.828125 197.472656 211.941406 197.253906 207.476562 C 197.398438 202.511719 198.40625 198.40625 200.351562 195.023438 C 201.933594 192.070312 204.09375 189.625 206.902344 187.609375 C 209.492188 185.808594 212.515625 184.800781 215.972656 184.65625 C 218.777344 184.65625 221.011719 185.089844 222.808594 185.953125 C 224.539062 186.816406 226.050781 188.039062 227.488281 189.550781 C 227.992188 188.257812 228.785156 187.25 229.71875 186.601562 C 230.800781 185.953125 231.953125 185.59375 233.175781 185.59375 C 234.902344 185.59375 236.34375 186.167969 237.566406 187.394531 C 238.789062 188.617188 239.4375 190.199219 239.4375 192.214844 Z M 194.230469 227.199219 C 193.078125 228.425781 191.425781 229.074219 189.335938 229.074219 C 187.25 229.074219 185.089844 227.921875 182.929688 225.472656 L 163.277344 203.519531 L 163.277344 222.234375 C 163.277344 224.753906 162.628906 226.480469 161.261719 227.488281 C 159.894531 228.570312 158.238281 229.074219 156.222656 229.074219 C 154.351562 229 152.910156 228.351562 151.902344 227.199219 C 150.824219 225.976562 150.320312 224.320312 150.320312 222.378906 L 150.320312 177.820312 C 150.320312 175.660156 150.96875 174.003906 152.191406 172.851562 C 153.414062 171.628906 155 171.050781 156.871094 171.050781 C 161.117188 171.269531 163.277344 173.570312 163.277344 178.105469 L 163.277344 193.726562 L 181.632812 173.859375 C 183.363281 171.988281 185.234375 171.050781 187.394531 171.050781 C 189.191406 171.125 190.703125 171.84375 191.855469 173.140625 C 193.152344 174.507812 193.800781 175.945312 193.800781 177.457031 C 193.65625 179.257812 192.71875 180.914062 191.136719 182.496094 L 175.730469 198.117188 L 193.945312 217.84375 C 195.167969 219.136719 195.886719 220.507812 196.101562 221.875 C 196.101562 224.105469 195.457031 225.90625 194.230469 227.199219 Z M 194.230469 227.199219 " fill-opacity="1" fill-rule="evenodd"/><path fill="#000000" d="M 150.894531 110.367188 L 155.933594 115.910156 L 157.085938 114.902344 L 158.167969 113.824219 L 153.054688 108.351562 Z M 150.894531 110.367188 " fill-opacity="1" fill-rule="evenodd"/><path fill="#000000" d="M 190.488281 95.25 L 193.511719 95.25 L 193.511719 104.25 L 190.488281 104.25 Z M 190.488281 95.25 " fill-opacity="1" fill-rule="evenodd"/><path fill="#000000" d="M 227.847656 119.222656 L 233.609375 114.113281 L 231.664062 111.878906 L 225.832031 116.917969 Z M 227.847656 119.222656 " fill-opacity="1" fill-rule="evenodd"/><path fill="#000000" d="M 211.867188 110.152344 L 214.242188 106.191406 L 211.722656 104.609375 L 209.347656 108.570312 L 210.644531 109.359375 Z M 211.867188 110.152344 " fill-opacity="1" fill-rule="evenodd"/><path fill="#000000" d="M 172.417969 104.25 L 171.050781 104.898438 L 172.921875 109.144531 L 174.292969 108.496094 L 175.660156 107.921875 L 173.789062 103.671875 Z M 172.417969 104.25 " fill-opacity="1" fill-rule="evenodd"/></svg>