<svg xmlns="http://www.w3.org/2000/svg" xmlns:xlink="http://www.w3.org/1999/xlink" width="512" zoomAndPan="magnify" viewBox="0 0 384 383.999986" height="512" preserveAspectRatio="xMidYMid meet" version="1.0"><defs><clipPath id="6e561cdb1e"><path d="M 192 0 C 85.960938 0 0 85.960938 0 192 C 0 298.039062 85.960938 384 192 384 C 298.039062 384 384 298.039062 384 192 C 384 85.960938 298.039062 0 192 0 Z M 192 0 " clip-rule="nonzero"/></clipPath><clipPath id="a6ea92ac75"><path d="M 0 0 L 384 0 L 384 384 L 0 384 Z M 0 0 " clip-rule="nonzero"/></clipPath><clipPath id="e50411443d"><path d="M 192 0 C 85.960938 0 0 85.960938 0 192 C 0 298.039062 85.960938 384 192 384 C 298.039062 384 384 298.039062 384 192 C 384 85.960938 298.039062 0 192 0 Z M 192 0 " clip-rule="nonzero"/></clipPath><clipPath id="5ddc740e80"><rect x="0" width="384" y="0" height="384"/></clipPath><clipPath id="a88616df84"><path d="M 76.089844 43 L 307.839844 43 L 307.839844 342 L 76.089844 342 Z M 76.089844 43 " clip-rule="nonzero"/></clipPath></defs><g clip-path="url(#6e561cdb1e)"><g><g clip-path="url(#5ddc740e80)"><g clip-path="url(#a6ea92ac75)"><g clip-path="url(#e50411443d)"><rect x="-84.48" width="552.96" fill="#14967f" height="552.959979" y="-84.479997" fill-opacity="1"/></g></g></g></g></g><g clip-path="url(#a88616df84)"><path fill="#000000" d="M 129.40625 291.554688 C 113.964844 276.6875 103.753906 254.257812 103.753906 223.9375 C 103.753906 210.285156 109.039062 193.714844 118.1875 175.6875 C 127.222656 157.882812 139.421875 139.828125 151.863281 123.511719 C 164.273438 107.242188 176.714844 92.976562 186.066406 82.765625 C 188.210938 80.421875 190.191406 78.300781 191.964844 76.417969 C 193.742188 78.300781 195.71875 80.421875 197.863281 82.765625 C 207.21875 92.976562 219.660156 107.242188 232.066406 123.511719 C 244.507812 139.828125 256.707031 157.882812 265.746094 175.6875 C 274.894531 193.714844 280.179688 210.285156 280.179688 223.9375 C 280.179688 254.257812 269.964844 276.6875 254.523438 291.554688 C 238.980469 306.527344 217.074219 314.851562 191.964844 314.851562 C 166.859375 314.851562 144.953125 306.527344 129.40625 291.554688 Z M 191.964844 56.933594 C 182.460938 47.246094 182.457031 47.246094 182.457031 47.25 L 182.429688 47.273438 L 182.117188 47.585938 C 181.90625 47.792969 181.601562 48.09375 181.210938 48.488281 C 180.425781 49.273438 179.292969 50.421875 177.859375 51.894531 C 174.996094 54.839844 170.929688 59.105469 166.058594 64.421875 C 156.328125 75.042969 143.320312 89.949219 130.285156 107.046875 C 117.28125 124.097656 104.03125 143.597656 93.984375 163.398438 C 84.046875 182.972656 76.609375 204.050781 76.609375 223.9375 C 76.609375 260.695312 89.183594 290.507812 110.582031 311.113281 C 131.875 331.621094 160.859375 342 191.964844 342 C 223.074219 342 252.058594 331.621094 273.351562 311.113281 C 294.75 290.507812 307.320312 260.695312 307.320312 223.9375 C 307.320312 204.050781 299.882812 182.972656 289.949219 163.398438 C 279.898438 143.597656 266.652344 124.097656 253.648438 107.046875 C 240.609375 89.949219 227.605469 75.042969 217.875 64.421875 C 213.003906 59.105469 208.933594 54.839844 206.070312 51.894531 C 204.636719 50.421875 203.503906 49.273438 202.722656 48.488281 C 202.332031 48.09375 202.027344 47.792969 201.816406 47.585938 L 201.570312 47.34375 L 201.503906 47.273438 L 201.484375 47.253906 C 201.480469 47.253906 201.472656 47.246094 191.964844 56.933594 Z M 191.964844 56.933594 L 201.472656 47.246094 C 196.191406 42.0625 187.734375 42.066406 182.457031 47.25 Z M 191.964844 56.933594 " fill-opacity="1" fill-rule="evenodd"/></g><path fill="#000000" d="M 239.464844 233.402344 C 239.464844 255.894531 221.238281 274.125 198.75 274.125 L 198.75 301.277344 C 236.226562 301.277344 266.609375 270.886719 266.609375 233.402344 Z M 239.464844 233.402344 " fill-opacity="1" fill-rule="evenodd"/></svg>